/* XPM */
static const char *m4[] = {
/* columns rows colors chars-per-pixel */
"64 36 231 2 ",
"   c #080807",
".  c #03030D",
"X  c #0C0C0C",
"o  c #050706",
"O  c #11110F",
"+  c #0C0B13",
"@  c #070618",
"#  c #141413",
"$  c #1A1A14",
"%  c #14141A",
"&  c #1B1B1C",
"*  c #141813",
"=  c #0F0F0F",
"-  c #221A19",
";  c #272518",
":  c #32341A",
">  c #3A3916",
",  c #3F3F0F",
"<  c #1C1B24",
"1  c #191A27",
"2  c #161832",
"3  c #281F24",
"4  c #1D222C",
"5  c #232323",
"6  c #25232C",
"7  c #2B2B2B",
"8  c #292725",
"9  c #392326",
"0  c #363527",
"q  c #2A2B32",
"w  c #282A36",
"e  c #352E38",
"r  c #333333",
"t  c #33333B",
"y  c #39363A",
"u  c #3C3C3B",
"i  c #383834",
"p  c #2F333B",
"a  c #403F1F",
"s  c #403F33",
"d  c #3F421A",
"f  c #3F403D",
"g  c #48481A",
"h  c #565717",
"j  c #4B4C11",
"k  c #5D6013",
"l  c #676918",
"z  c #76771C",
"x  c #484926",
"c  c #5D5D22",
"v  c #545329",
"b  c #4A4936",
"n  c #535437",
"m  c #514E33",
"M  c #615F2E",
"N  c #696826",
"B  c #787827",
"V  c #787936",
"C  c #6B6831",
"Z  c #393845",
"A  c #33334C",
"S  c #3F434E",
"D  c #454545",
"F  c #4B4C4C",
"G  c #444B4E",
"H  c #545547",
"J  c #4E5256",
"K  c #555453",
"L  c #5E5E5E",
"P  c #4A4A54",
"I  c #78794A",
"U  c #797859",
"Y  c #6A6A56",
"T  c #5A5963",
"R  c #626363",
"E  c #65666C",
"W  c #6E7474",
"Q  c #747573",
"!  c #7A7A79",
"~  c #777877",
"^  c #74736A",
"/  c #817F66",
"(  c #97564B",
")  c #7E8125",
"_  c #868717",
"`  c #96971C",
"'  c #959512",
"]  c #A19E15",
"[  c #ABAB0B",
"{  c #B5B30D",
"}  c #A5A314",
"|  c #A9A615",
" . c #ACAA14",
".. c #A3A119",
"X. c #AEAC1B",
"o. c #B0AF14",
"O. c #B0AE1B",
"+. c #B4B216",
"@. c #B3B31B",
"#. c #BBBB1A",
"$. c #B9B719",
"%. c #828123",
"&. c #8B8A22",
"*. c #898928",
"=. c #989827",
"-. c #83843D",
";. c #91922B",
":. c #A29E25",
">. c #AAA928",
",. c #B1AD26",
"<. c #BDBC22",
"1. c #B9B62B",
"2. c #B8B726",
"3. c #A9A838",
"4. c #BAB933",
"5. c #AFB02A",
"6. c #C0BC1C",
"7. c #C5BF36",
"8. c #C1BF24",
"9. c #BFC01D",
"0. c #BEC023",
"q. c #C4C31D",
"w. c #CCCB1D",
"e. c #D1CE1D",
"r. c #D2D21D",
"t. c #D7D719",
"y. c #CFD21F",
"u. c #C5C523",
"i. c #CDCC23",
"p. c #C9C926",
"a. c #D0CF21",
"s. c #D3D324",
"d. c #DCDD24",
"f. c #D4D42B",
"g. c #D8D72E",
"h. c #DBDB2B",
"j. c #D7D826",
"k. c #C4C534",
"l. c #CACA37",
"z. c #D2CF3B",
"x. c #D5D434",
"c. c #DDDD34",
"v. c #D4D33E",
"b. c #DADA3A",
"n. c #D8D738",
"m. c #CED036",
"M. c #E0DE32",
"N. c #DFE029",
"B. c #DFE031",
"V. c #E2E226",
"C. c #E7E72C",
"Z. c #E3E333",
"A. c #E9E936",
"S. c #F0F035",
"D. c #85844D",
"F. c #B9B943",
"G. c #A9AA5E",
"H. c #A9A843",
"J. c #8D8B75",
"K. c #919674",
"L. c #949468",
"P. c #A6A668",
"I. c #BEBD7F",
"U. c #BEC142",
"Y. c #C7C744",
"T. c #DDDC43",
"R. c #D8D747",
"E. c #C8C858",
"W. c #DCDC5C",
"Q. c #DCDB53",
"!. c #D3C758",
"~. c #E2DF50",
"^. c #DFE049",
"/. c #E9E949",
"(. c #E3E25C",
"). c #ECEB55",
"_. c #F3F35E",
"`. c #DEDF62",
"'. c #C1C363",
"]. c #DDE172",
"[. c #E4E566",
"{. c #F5F26A",
"}. c #E3E672",
"|. c #7C7D86",
" X c #848483",
".X c #8B8B8C",
"XX c #8E8A80",
"oX c #91928F",
"OX c #979898",
"+X c #8B8B92",
"@X c #B4B48E",
"#X c #9C9DA3",
"$X c #A3A4A3",
"%X c #ACACAB",
"&X c #B2B2A9",
"*X c #B2B2B2",
"=X c #BCBDBD",
"-X c #B3B4B8",
";X c #ACB1B3",
":X c #BCC0BE",
">X c #D8D884",
",X c #C4C49A",
"<X c #DADB92",
"1X c #E7E887",
"2X c #EBEC98",
"3X c #FFFD82",
"4X c #DAD7B2",
"5X c #E0D0AE",
"6X c #F0F2B5",
"7X c #F3F3AA",
"8X c #CCCCCC",
"9X c #C5C5C6",
"0X c #D4D4D4",
"qX c #DADADA",
"wX c #CCD0DA",
"eX c #EBDBDF",
"rX c #F7F8C9",
"tX c #F9F8DB",
"yX c #E0E0DF",
"uX c #DDDDEC",
"iX c #DEE7E0",
"pX c #E3E3E2",
"aX c #EBEBEC",
"sX c #E5E6EB",
"dX c #FBFCEC",
"fX c #FCFCE4",
"gX c #F5F5F5",
"hX c #FCFCF4",
"jX c #FFFFFF",
"kX c #F6F6F9",
"lX c #EFF2F8",
/* pixels */
"jXjXjXjXjXjXjXjXjXjXjXjXjXjXjXjXjXjXjXjXjXjXjXjXjXjXjXjXjXjXjXjXjXjXjXjXjXjXjXjXjXjXjXjXjXjXjXjXjXjXjXjXjXjXjXjXjXjXjXjXjXjXjXjX",
"jXjXjXjXjXjXjXjXjXjXjXjXjXjXjXjXjXjXjXjXjXjXjXjXjXjXjXjXjXjXjXjXjXjXjXjXjXjXjXjXjXjXjXjXjXjXjXjXjXjXjXjXjXjXjXjXjXjXjXjXjXjXjXjX",
"jXjXjXjXjXjXjXjXjXjXjXjXjXjXjXjXjXjXjXjXjXjXjXjXjXjXjXjXjXjXjXjXjXjXjXjXjXjXjXjXjXjXjXjXjXjXjXjXjXjXjXjXjXjXjXjXjXjXjXjXjXjXjXjX",
"jXjXjXjXjXjXjXjXjXjXjXjXjXjXjXjXjXjXjXjXjXjXjXjXjXjXjXjXjXjXjXjXjXjXjXjXjXjXjXjXjXjXjXjXjXjXjXjXjXjXjXjXjXjXjXjXjXjXjXjXjXjXjXjX",
"jXjXjXjXjXjXjXjXjXjXjXjXjXjXjXjXjXjXjXjXjXjXjXjXjXjXjXjXjXjXjXjXjXjXjXjXjXjXjXjXjXjXjXjXjXjXjXjXjXjXjXjXjXjXjXjXjXjXjXjXjXjXjXjX",
"jXjXjXjXjXjXjXjXjXjXjXjXjXjXjXjXjXjXjXjXjXjXjXjXjXjXjXjXjXjXjXjXjXjXjXjXjXjXjXjXjXjXjXjXjXjXjXjXjXjXjXjXjXjXjXjXjXjXjXjXjXjXjXjX",
"jXjXjXjXjXjXjXjXjXjXjXjXjXjXjXjXjXjXjXjXjXjXjXjXjXjXjXjXjXjXjXjXjXjXjXjXjXjXjXjXjXjXjXjXjXjXjXjXjXjXjXjXjXjXjXjXjXjXjXjXjXjXjXjX",
"jXjXjXjXjXjXjXjXjXjXjXjXjXjXjXjXjXjXjXjXjXjXjXjXjXjXjXjXjXjXjXjXjXjXjXjXjXjXjXjXjXjXjXjXjXjXjXjXjXjXjXjXjXjXjXjXjXjXjXjXjXjXjXjX",
"jXjXjXjXjXjXjXjXjXjXjXjXjXjXjXjXjXjXjXjXjXjXjXjXjXjXjXjXjXjXjXjXjXjXkXjXjXjXjXjXjXjXjXjXjXjXjXjXjXjXjXjXjXjXjXjXjXjXjXjXjXjXjXjX",
"jXjXjXjXjXjXjXjXjXjXjXjXjXjXjXjXjXjXjXjXjXjXjXjXjXjXjXjXjXjXjXjXjXjXjXjXjXjXjXjXjXjXjXjXjXjXjXjXjXjXjXjXjXjXjXjXjXjXjXjXjXjXjXjX",
"jXjXjXjXjXjXjXjXjXjXjXjXjXjXjXjXjXjXjXjXjXjXjXjXjXjXjXjXjXgXqX=X$XoX XQ ~ I.>X>X1X2X7XrXdXjXjXjXjXjXjXjXjXjXjXjXjXjXjXjXjXjXjXjX",
"jXjXjXjXjXjXjXjXjXjXjXjXjXjXjXjXjXjXjXjXjXjXjXjXjXjXpX9X.XJ 8   o * 1 8 3.;.g : : : d c V G.<XrXhXjXjXjXjXjXjXjXjXjXjXjXjXjXjXjX",
"jXjXjXjXjXjXjXjXjXjXjXjXjXjXjXjXjXjXjXjXjXjXjXjX0X$X~ R u X 5 W ! J H U.M @ 4 q q t p w q r H I G.<XtXjXjXjXjXjXjXjXjXjXjXjXjXjX",
"jXjXjXjXjXjXjXjXjXjXjXjXjXjXjXjXjXjXjXjXjXjXpXOX X! OX:X=XOX%XiXwXY 4.H S H F F K ~ oX$X.X$X-X-X#XY V ].rXjXjXjXjXjXjXjXjXjXjXjX",
"jXjXjXjXjXjXjXjXjXjXjXjXjXjXjXjXjXjXjXjXaX#X|.OX-XsXjXlXsXaXsXuXJ.1.m 6 i b Q &X*X-X%X$X.XE E S w 4 2 B d.[.rXjXjXjXjXjXjXjXjXjX",
"jXjXjXjXjXjXjXjXjXjXjXjXjXjXjXjXjXjXhXhXJ.J.@X@X4X,X@XJ.U U / U 5.n @ + + . w T Z Z u 5 ; ; > g N ;.2.p.j.r.r.W.>X,XdXjXjXjXjXjX",
"jXjXjXjXjXjXjXjXjXhXfXtXrX6X7X2X1X}.[.`.(.{.~./.T.x.x.x.x.c.j.N.) 0 , g c z _ _ ` >.#.u.s.j.j.d.V.V.h.j.j.f.j.r.t.6.4XjXjXjXjXjX",
"jXjXjXjXjXjXdX6X1X[.Q.T.b.b.g.j.j.j.j.c.M.c.Z.c.Z.Z.c.c.h.h.N.h.i.s.#. .$.w.t.d.d.d.t.e.2.u.r.r.y.r.r.r.r.i.i.i.j.7.( eXjXjXjXjX",
"jXjXjXjXjX2XR.x.f.f.j.h.V.V.C.S.A.A.S.S.Z.Z.c.Z.Z.c.f.j.j.d.k.1.t.i.w.w.w.i.f.f.n.b.b.R.F.F.T.T.T.T.T.n.f.h.V.N.s.d.!.5XjXjXjXjX",
"jXjXjXfX(.n./.c.h.C.A.h.p.5.;.B -.D.D.5.h.Z.Z.i.8.f.Z.f.j.k.u 3./.~.(.(.(.[.`.`.W.W.Q.R.R.v.z.l.m.m.n.T.).>.l _ g.[.}.R.dXjXjXjX",
"jXjXtXn 3.-.b H.).H.V m r 6 A A A P C 4.).1.j $ # ; z R.{.I n Q.!.Y.Y.k.4.2.2.@.$.+.+.o.o.o.o.+.+.$.6.j.&.6 w 1 h n.{ 1.hXjXjXjX",
"jXjX,XX ) ; @ l V.M e K R Y I I *.Y.{.3X5.$ 1 r r 6 @ h d.3.` +. .[  . .| | | | | | | | | | | | X.+.q.2.u u 5 i 3 ..+.F.jXjXjXjX",
"jXjXL.% l ; @ l Z.(.k.k.l.m.T.)._.)./.k.; t u 7 5 i r @ _ V.<...............` ] ] ] ] } } |  .+.$.@.w.B Z ; # & t z [ E.jXjXjXjX",
"jXjXK.|.XXQ t j <.,.@.@.@.@.1.p.e.w.t.k 1 b D u 5 O r 6 , i.u.| | X.o.+.+.$.$.#.q.q.u.p.i.w.u.<.,.X.9.x y 5 5 & w B ' @XjXjXjXjX",
"jXjXI W  XoXP j u.2.<.$.@.@.,.&.#.u.#.; y r 7 5 5 - 7 y ; O.w.a.s.j.g.h.h.c.n.n.b.v.v.l.4.,.>...X.+.@.0 y u 7 7 e x : +XjXjXjXjX",
"jXhXC : x x % g x > : ` #.X.@.B ..q.` % D u & 7 - 9 & u ; ` <.x.n.v.z.m.k.7.1.5.>.=.` &.&.%.%.%.) &.&.; r 7 7 7 r E =XhXjXjXjXjX",
"jXdXz > x h . g . . . d q.X.$.%.&.u.l % D u 7 G 8 e r f ; >.1.>.:.=.*.B B N c v v m b s i r q q e 6 & 5 r 7 7 & R jXjXjXjXjXjXjX",
"jXhX'.*.=.=.l h # $ # h <.O.X.` _ 0.h + u 5 5 5 3 9 5 y - c v x 0 0 7 7 6 3 < < < < & & & 5 5 7 u r X X & 5 & 5 ~ 8X0XgXjXjXjXjX",
"jXjXkX&X@XP.P.-.N N h z M v x x 0 0 * * r r K u 8 # r r # + % % % % * * # O X X     o o o o X X X * # X * r D L  X%X0XgXjXjXjXjX",
"jXjXkXkXsX8X#XE & X + + + + % % % % = * 5 u D 8 $ 7 u & X O X     X X X # & 5 7 r D K E ~ .XOX*X9X8XqXpXsXaXgXjXjXjXjXjXjXjXjXjX",
"jXjX*XK r & # X # # # # O X X X X X X X X & 7 r 5 7 * X & 7 u F R Q  XOX%X=X8XqXaXgXjXjXjXjXjXjXjXjXjXjXjXjXjXjXjXjXjXjXjXjXjXjX",
"jXjXgX0X*XoXQ L F u r 7 5 - & & % * * # # & 7 u K R  X%X8XpXgXkXjXjXjXjXjXjXjXjXjXjXjXjXjXjXjXjXjXjXjXjXjXjXjXjXjXjXjXjXjXjXjXjX",
"jXjXjXjXjXjXjXjXgXaXpXqX0X0X8X8X8X0X0XqXpXaXgXgXjXjXjXjXjXjXjXjXjXjXjXjXjXjXjXjXjXjXjXjXjXjXjXjXjXjXjXjXjXjXjXjXjXjXjXjXjXjXjXjX",
"jXjXjXjXjXjXjXjXjXjXjXjXjXjXjXjXjXjXjXjXjXjXjXjXjXjXkXjXjXjXjXjXjXjXjXjXjXjXjXjXjXjXjXjXjXjXjXjXjXjXjXjXjXjXjXjXjXjXjXjXjXjXjXjX",
"jXjXjXjXjXjXjXjXjXjXjXjXjXjXjXjXjXjXjXjXjXjXjXjXjXjXjXjXjXjXjXjXjXjXjXjXjXjXjXjXjXjXjXjXjXjXjXjXjXjXjXjXjXjXjXjXjXjXjXjXjXjXjXjX",
"jXjXjXjXjXjXjXjXjXjXjXjXjXjXjXjXjXjXjXjXjXjXjXjXjXjXjXjXjXjXjXjXjXjXjXjXjXjXjXjXjXjXjXjXjXjXjXjXjXjXjXjXjXjXjXjXjXjXjXjXjXjXjXjX"
};
