/* XPM */
static const char *emkaymakcollectible[] = {
/* columns rows colors chars-per-pixel */
"64 48 242 2 ",
"   c #15161A",
".  c #1A161C",
"X  c #17181C",
"o  c #1B1B1D",
"O  c #171516",
"+  c #0C0E11",
"@  c #221E1D",
"#  c #24201D",
"$  c #2B221E",
"%  c #1D1D21",
"&  c #181D24",
"*  c #211E22",
"=  c #241E29",
"-  c #1E2124",
";  c #1C232A",
":  c #14353D",
">  c #232224",
",  c #2A2524",
"<  c #252529",
"1  c #292629",
"2  c #26292C",
"3  c #2B2A2C",
"4  c #2B2926",
"5  c #322C2C",
"6  c #362A27",
"7  c #38332D",
"8  c #2C2D32",
"9  c #252D33",
"0  c #312F33",
"q  c #323234",
"w  c #3B3C3C",
"e  c #363838",
"r  c #2E3031",
"t  c #45352E",
"y  c #493A36",
"u  c #553A32",
"i  c #4A312A",
"p  c #693A34",
"a  c #3E403D",
"s  c #45413E",
"d  c #594439",
"f  c #63453B",
"g  c #69473C",
"h  c #774C3E",
"j  c #65503F",
"k  c #3C3E41",
"l  c #373D44",
"z  c #2B3B46",
"x  c #163540",
"c  c #443F42",
"v  c #3E4244",
"b  c #38434B",
"n  c #384A54",
"m  c #3C505A",
"M  c #294B53",
"N  c #395A66",
"B  c #2C5760",
"V  c #307378",
"C  c #434445",
"Z  c #434549",
"A  c #4A4B4C",
"S  c #494948",
"D  c #554A45",
"F  c #474D53",
"G  c #4B5357",
"H  c #535553",
"J  c #5B5D5C",
"K  c #585958",
"L  c #575249",
"P  c #684B43",
"I  c #774B42",
"U  c #6C5247",
"Y  c #795348",
"T  c #785C51",
"R  c #635D56",
"E  c #5F615E",
"W  c #65625C",
"Q  c #76675A",
"!  c #465A63",
"~  c #555D62",
"^  c #5C6365",
"/  c #427B7C",
"(  c #636563",
")  c #6B6E6B",
"_  c #676968",
"`  c #75736D",
"'  c #676E71",
"]  c #6C7476",
"[  c #757C7C",
"{  c #787975",
"}  c #6E6F6B",
"|  c #875747",
" . c #935D4C",
".. c #895D52",
"X. c #854C46",
"o. c #986658",
"O. c #8A6256",
"+. c #A46859",
"@. c #A6705D",
"#. c #847F76",
"$. c #837F79",
"%. c #907265",
"&. c #AA7766",
"*. c #B37769",
"=. c #848077",
"-. c #84837A",
";. c #8B857B",
":. c #8D8579",
">. c #94887C",
",. c #948977",
"<. c #B98576",
"1. c #A78F79",
"2. c #2F7D82",
"3. c #757E81",
"4. c #7A7F80",
"5. c #447E82",
"6. c #15AFB1",
"7. c #30ACB1",
"8. c #289396",
"9. c #7A8284",
"0. c #7D898B",
"q. c #798487",
"w. c #779294",
"e. c #65ACB8",
"r. c #4E9394",
"t. c #40BFC4",
"y. c #19FCFA",
"u. c #07F4F1",
"i. c #28FCFB",
"p. c #36FCF9",
"a. c #36E5E7",
"s. c #28CCCB",
"d. c #4ED3D2",
"f. c #6DD7DC",
"g. c #6ADBE1",
"h. c #48FDFB",
"j. c #58FDFB",
"k. c #4FE8E9",
"l. c #66FCFB",
"z. c #77FCFA",
"x. c #72E7E8",
"c. c #50DDE4",
"v. c #8A8B84",
"b. c #838B8D",
"n. c #8C8E8A",
"m. c #838884",
"M. c #948D82",
"N. c #8C918C",
"B. c #979184",
"V. c #93938B",
"C. c #9B9487",
"Z. c #859193",
"A. c #8B9494",
"S. c #8B999B",
"D. c #929592",
"F. c #949B9A",
"G. c #9A9E9C",
"H. c #989B95",
"J. c #838E91",
"K. c #A29B8D",
"L. c #AC9D89",
"P. c #A49D93",
"I. c #A99E92",
"U. c #9BA19E",
"Y. c #ACA294",
"T. c #A6A49B",
"R. c #B4AA9C",
"E. c #B5A998",
"W. c #B4A793",
"Q. c #939FA4",
"!. c #9BA6A6",
"~. c #88B7B8",
"^. c #8AADAF",
"/. c #A3A6A2",
"(. c #A4A9A5",
"). c #ABABA4",
"_. c #A5ACAB",
"`. c #AAADAA",
"'. c #B4AEA2",
"]. c #ABB1AD",
"[. c #B3B4AC",
"{. c #B9B5AC",
"}. c #BAB9AE",
"|. c #BBB3A4",
" X c #AAB5B5",
".X c #B4B6B2",
"XX c #B4B9B5",
"oX c #BBBBB3",
"OX c #BCBEB9",
"+X c #B5BCBA",
"@X c #A3ADB1",
"#X c #C5BBAA",
"$X c #C1BDB4",
"%X c #BCC1BC",
"&X c #BEC0B4",
"*X c #CCC0AF",
"=X c #CDC3B4",
"-X c #C3C4BD",
";X c #CEC9BD",
":X c #C6C2B7",
">X c #D4CCBB",
",X c #DACEBC",
"<X c #D2C6B5",
"1X c #DCD1BE",
"2X c #E0D2BF",
"3X c #87D2D6",
"4X c #BBC6C7",
"5X c #A8CAD1",
"6X c #AFDBE2",
"7X c #8AFDFB",
"8X c #96FDFB",
"9X c #8AE3E6",
"0X c #B4E5E8",
"qX c #A9FCFA",
"wX c #B4FDFB",
"eX c #BAFBF9",
"rX c #A7E6E7",
"tX c #CDCCC3",
"yX c #CACECA",
"uX c #C4C9C5",
"iX c #D3CEC3",
"pX c #CCD1CB",
"aX c #D5D1C6",
"sX c #DCD2C2",
"dX c #D4D3CB",
"fX c #DAD5CB",
"gX c #CAD6D6",
"hX c #D5D9D6",
"jX c #C4CDD1",
"kX c #EADCC6",
"lX c #E6D9C5",
"zX c #EDE4D3",
"xX c #DCE6E5",
"cX c #C3FDFB",
"vX c #C8FAF9",
"bX c #D3FDFD",
"nX c #C8EBEC",
"mX c #EAF0ED",
"MX c #FDFEFC",
"NX c #F7FAF6",
"BX c #EAF1EF",
"VX c #DFDFE0",
/* pixels */
"K V.[.{.{.{.oX}.}.oXoXoXoX.XoXn.a e v Z k v v v Z Z Z Z k r > 5 1 1 e ).&XoX}.}.}.}.}.}.[.[.[.[.[.H o % X . X . @ o 2 > > < = * ",
"_ W D e 7 7 R /.G.n.V.V.V.n.v.v.N.H q e e Z Z Z Z Z Z C Z a > 6 5 5 5 5 { v.=.=.=.#.#.{ { -.} 5 4 > * X . . . . o 8 8 2 3 8 > < ",
"J W _ W a 8 3 H ].yXT.V.V.V.V.).[.H.w o > v G A A A S S Z C 1 , 6 5 6 5 H.).v.` { { { -.T.H.s * > * % X . . . * 8 8 2 1 < 1 < % ",
"b.[ J K J K e % 3 m.XXn.-.=.{ $./.(.V.e 8 w A Z v Z Z C C v 3 > 4 3 * 7 V.H.` R W W W { V.H < 8 3 < > % % % * 8 < - - > % % % 0 ",
"9.b.0._ K H J K k v m.n.v.v.v.v.v.n.N.{ A q e v k k k v k v q 1 8 3 y ` -.-.m.m.m.m.-.-.[ Z < 2 < < - > > < 8 - % X X %   8 m./.",
"9.3.9.b.b.] { ) K ] ]./.).`.`.).`.)./.[.( > 2 e S Z Z Z Z Z e > > O S ).T.T././.).).)./.).H O o     o 1 8 3 X % - % > % J oXtX].",
"q.9.9.3.3.[ { ] _ E H w > , 6 $ # $ , > > > o - C A S S S S w O @ o o O o @ # @ # O O @ O o X     % 0 < K G . > % > >   v.tX:X].",
"J.9.9.9.9.0.[ 9.b.' ( K A k C _ W ( _ _ _ ^ J q 2 k C c C k H A > > k ( _ _ _ _ ( ( ^ q 4 > > % > 2 <   v v . * < > 3 q V.iX;X[.",
"A.b.0.0.9.F.m.[ 9.b.b.[ ' K [ +X+XyXuX%X%X%XuX^ e A A A A Z K L >   H %X[.[.[.[.oXT.v.q > - X > 8 3 < > < > A n.3.] ] ' ).aXiX.X",
"U.Z.Z.b.0.!.m.9.9.9.9.0.0.] ^ ~ ^ 9./.H.V.D.)./.[ _ H Z C D y y y 7 L '.H.V.V.P.).C X < < - < 8 < r - % % 3 OXOXJ.0.[ } ).aXiX.X",
"_.F.F.A.Z.@XD.m.0.0.0.b.0.9.3.q.q.[ F._./.!.!.U.F.] y 7 t t t t 6 6 L B.R.D.n.n.n.J 8 8 % 2 q < > % w K F J :XoXZ.9.) ) `.aXiX.X",
"!.F.G.G.F. XG.A.Z.Z.0.!.S.3.q.0.0.q.3.q.0.D.F.F.n.s 5 5 5 , , > , , @ @ L V.D.A.] ' ] ' ~ G v F q k [.!.9.[ ;XOXA.9.' ) `.aXiX.X",
"yX+X`.!.G.+X/.H.F.F.A._.!.0.q.Z.S.S.Q.!.!._.!. X) 4 4 @ * @ o o o @ # > 5 L F.F.A.Z.0.q.q.' F m.b.[ OXF.[ ) ;XOXA.9.( E T.aXiX.X",
"MXMXNXmX]. X`./.!.G.F. XXXA.0.Q.!.!.!._.].].XXU.e 3 @ 6 f I u i 6 $ $ # $ , W /.G.F.Z.Z.' J ] H./.[ oX!.3.} ;XOXA.9.) ` '.aXiX.X",
"NXMXMXMX@X X[.pXmXhX%X4XuXF.Z.!. X@X X+X%X%XyX/.r > t ..&.o. .Y I g u 6 @ $ 6 G.]./.G.F.9.m.F.).(.] oX_.[ ( iX%XS.b.{ { [.iXiX.X",
"MXMXNXMX@X XoXhXMXMXMXxXNX4X!.4X4X%X%XuXyXyXdXoX7 4 T *.*.@.o. .o. .h p 6 # 4 G.XX`./.U.Z.F.F.[._.-.:X_.9.( iX%XS.b.{ ` [.dXiX.X",
"MXMXNXMX@X X%XhXMXNXMXxXMXhX4XBXxXgXjXhXhXhXhX-Xq q O.<.&.&.@.+.&.@.| I f $ , T.%X[.`./.!.(.!..X].{ :X X9.( iX-XS.A.H.[ (.aXtX.X",
"MXMXNXMX!.@XuXhXMXMXNXgXMXjX4XMXBXxXhXxXhXhXhXhXZ 4 O.O.U U ..o. .Y U f P 6 # ).-X.X[.(. X+X!.oXXX^ }. X9.H tX%XS.A.F.[ (.aXtX.X",
"MXMXMXMXS.!.yXhXMXMXNX5XMX4X4XMXMXBXxXBXBXBXmXmX( Z R T P d j P f d d f d 7 a oX+XXX X_. XXX`.-X.X^ -X_.] H dXtX3.n./.4._.dXtXOX",
"VXxXmXNXQ.!.uXpXNXNXBX XNX+X XMXmXmXVXxXuXuX%X-X^ S %.T D d U o.I d t t g y _ aX:X-X.X]..X(.Z.!.S.H H.D._ H `./.9.3.[ ' /.pXyX/.",
"d.f.e.a. XH n F G G G F m n n m m N N M x x : : v T &.%.o.o...*. .h ..| | g ,.zXkXzXkXkXkXsXtXpX;X*X#X#X#X#X|.R.Y.m.s.8.M.gX' z ",
"p.p.7.a.S.b 5X6X3X3X3X3Xf.f.g.g.g.c.g.a.a.a.a.i.r...<.&.+.o.@.<.o.h |  .| Y %.kXlXlXkXkXkXkXkXkXkXkXkXlX2X,X=X|.I.N.y.6.M.gXG ~.",
"y.u.8.a.S.m vXbXcXcXwX7X8X8X8Xz.l.l.j.h.h.p.i.i.d.O.<.*.@.@.o...g h |  . .Y >.lX1XlXlXlXlXkX1X2X1X,X>X=X#X|.Y.C.M.m.y.6.>.jX~ 3X",
"y.u.r.^.S.n nXcX0XnXrXeXx.9XrXg.x.z.h.h.h.p.i.i.c.%.<.<.<.*. .Y f X.+. . .Y L.1X<X1X1X1XlXY.W #X,X=X#X|.R.I.C.M.;.m.y.8.>.uXG ~.",
"y.u.r.Q.0.n nXeXe.e.9XqX3Xf.f.x.c.l.h.j.h.i.p.h.p.` &.<.*.%...Y I f g  . .U E.=X:X<X<X<X,X{ + >.=X|.R.Y.I.C.M.v.;.m.y.8.>.-XG ~.",
"y.u./ b.J.b 0XcXeX0XeXwXqXqX8X7X7Xj.h.h.h.p.i.p.i.s.` *.&.P I I p p u h h Q -X#X|.#X#X#X#XE.=.I.R.Y.I.K.C.M.v.;.:.m.y.8.R.tXG ~.",
"7.8.w.hX!.z 0XeXcXcXwXwXqXqX8X7Xz.l.j.h.h.p.p.i.y.6.G o.o.o.o.X.h X.| h d > K '.'.R.R.R.W.W.R.Y.I.K.C.B.M.;.;.-.-.m.V M ` T.F ~.",
"` ` } K [ b 0XcXeXeXwXwXqX8X8X7Xz.z.j.j.h.p.i.p.2.& y U o.@.o.| h | | h 7 + + y P.P.K.K.K.B.B.B.B.B.M.>.;.;.-.-.-.v.c 3 ; H e ~.",
") { ) ] F.b 0XbXcXeXwXwXwX8X8X7Xz.l.j.h.h.p.p.V % & D D T %.&.o.| | I u 6 o X O S C.M.M.C.E.R.R.K.>.>.;.:.-.=.=.-.m.J Z 8 D.Z ~.",
"T.iXfXMXmXb 0XbXcXcXwXwXqX8X8X8Xz.l.l.k.x.8X5.2 ;   y U t y d d u i $ $ y >   o o K B.:.C.lX,XlX|.;.;.;.-.#.#.#.-.v.A 8 2 [.~ ^.",
"[.%XOXoX[.b 6XbXvXcXeXwXwXqX8X7Xz.z.l.7.7.2.8 9 ;   6 U D 7 # @ @ O O t u 4 O O * 4 { :.B.=X#X*X|.;.:.;.=.#.#.#.-.v.v > < D.G ^.",
"[ A.N.yXuXb 6XbXbXbXcXeXeXwXqXqX8Xz.j.j.t.z 9 9 > X , P P P d y 6 , 6 g u > o o > > D :.C.<X#X*X#X:.:.:.;.=.#.#.-.v.v > > $.Z ~.",
"e 2 G 4XgXb 5XbXbXbXcXcXcXeXwXqX7Xz.z.l.V 8 2 < - o o f Y U U f t t u I t > % > > > 3 W K.,X#X#X#XB.:.:.:.:.:.;.-.v.C > - s q w.",
"^ A K  X[ v n ! ! ! ! ! N N N N N B N m 8 8 < > > % X y Y Y T U f d h f 5 > o > > 1 1 5 H I.*X#X#XK.C.C.B.>.>.>.;.M.S < < K A l ",
"] A v jX X_.(.(._._.(.(.(./.(.`.m.S q q 8 2 < ; ; % X 4 f Y Y Y P g g y 3 % * < 2 1 1 3 4 q K M.#XE.Y.W.Y.I.K.K.B.C.S 3 8 _ B.P.",
"- < % b.!./.uX%X%X%XOXOX.X%X.X_ w e r 2 2 < > > > % o * 6 g Y I P g d 0 < X - < 1 1 4 4 3 5 4 w ;.#XE.E.R.E.E.E.Y.K.Z q w W M.P.",
"F.!.U.OXOXoX$X$X:X:X:X:X,XP.Z 8 q q 2 - < > > - - % X - > 6 g g g g y 1 > o - > 1 3 1 4 4 4 5 3 0 } R.|.|.|.|.#X#X|.%X&X#X=X=X=X",
"hXhXdXaXiXiXsXsXsXsX1XkXI.e 0 q 8 > > > > % > > > % X % > > t I | Y 5 1 < % > > 1 1 3 3 3 1 4 5 5 4 J OXyXyXyXpXdXdXfXfXsX,X<X<X",
":XtXtXiXaX,X1XsX1X,XlXY.q q 8 3 2 o o > % % % * * X   X * > * y ..y 3 > X + * < > 1 1 > 1 4 , 4 4 5 4 S -XfXtXtXtXaXiX>X,X1X,X<X",
";XtXtXiXiXiXiXiX>XfX$Xs 0 3 3 8 < > % X o o % % % %   X < % % % < ; % > %   % < < 1 > > > > > 4 > 4 5 3 A $X:X:X:X;X>X,X1XsXsXsX",
"iXiXiXiXaXiXtX-X-XtXW 3 3 > 1 1 > > > o   o % > o % % X 2 8 8 < - ; 8 8 >   % > > > > > > > > 4 > 4 4 5 1 ( aX>X,X>X>X,X1XsXsXsX",
"fXaXaXfXiXtXtX-XdXG.8 q 2 > > > % # # # o o o o o % * X % 8 0 0 8 8 8 1 % o o > > * * * o > > > > > > 4 0 4 ;.lX>X,X,X,X1XsXlXsX",
"fXaXaXaXaXaXdXfXtXS 3 3 > > > - o o o o o o o X X % > o o < 8 0 q 8 8 < @ o o > - % o o o % @ > > * > 4 4 3 5 |.<X=X=X=X<X<X<X<X",
"$X$X$X$X$XoX$X[.C 3 q 2 < < > % o o o o % - > - - % % % X > 8 8 8 0 8 > > X o % % o o o % o * > > > > < 1 3 > K R.I.Y.Y.Y.Y.Y.Y.",
"{.{.{.{.{.{.$XK o q 3 3 3 < > o % o X X X o % > > - % - X * 8 3 8 8 3 < - % o % X @ o o % % * * > > > > > 1 > s R.Y.Y.Y.Y.Y.Y.Y.",
"oX{.{.{.{.$XT.7 > 3 3 1 2 2 > o - % o o o   X X o * @ > X % < q e w q > % % % o X % o X * * > * > > o * * > , 4 ;.Y.C.I.I.I.I.I.",
"Y.Y.Y.W.W.R.W 4 > > 3 > 2 3 > > > - o X X X X     X - - X % 3 A A w 3 > % % o o O X X o > * * * * > @ % o * > o q :.Q #.=.=.=.#.",
"L.L.L.L.W.1.7 4 > > 2 - 2 3 1 < 1 > > % % X X X X X % % X X q Z ( 8 < > % o X   X o % - > > > > > > o * > % % * * Q L.1.1.1.,.,."
};
