/* XPM */
static const char *floor[] = {
/* columns rows colors chars-per-pixel */
"64 64 172 2 ",
"   c #0B1123",
".  c #0C152B",
"X  c #10172E",
"o  c #141B2F",
"O  c #151D33",
"+  c #171E38",
"@  c #181F39",
"#  c #19232F",
"$  c #142235",
"%  c #1A2336",
"&  c #16253A",
"*  c #1C253C",
"=  c #16283C",
"-  c #1D293D",
";  c #20273C",
":  c #212A3E",
">  c #24303D",
",  c #1E2640",
"<  c #1D2C43",
"1  c #1E2D48",
"2  c #1E3044",
"3  c #1F324B",
"4  c #202741",
"5  c #242C45",
"6  c #282F46",
"7  c #262E48",
"8  c #282F49",
"9  c #243245",
"0  c #293146",
"q  c #25344B",
"w  c #2C354C",
"e  c #2D354C",
"r  c #2C344D",
"t  c #2D344D",
"y  c #2C344C",
"u  c #2D364D",
"i  c #2E364C",
"p  c #2E364D",
"a  c #2F374C",
"s  c #2D344E",
"d  c #2C344F",
"f  c #2D354F",
"g  c #2E354E",
"h  c #2E344F",
"j  c #2E354F",
"k  c #2F364F",
"l  c #2E374F",
"z  c #2F374F",
"x  c #2B334C",
"c  c #26384D",
"v  c #2D384E",
"b  c #2B3A4D",
"n  c #30374F",
"m  c #31374D",
"M  c #30364D",
"N  c #30384D",
"B  c #30384E",
"V  c #30384F",
"C  c #31384F",
"Z  c #31394F",
"A  c #32384F",
"S  c #32394F",
"D  c #30394E",
"F  c #263650",
"G  c #2B3550",
"H  c #2A3650",
"J  c #2D3450",
"K  c #2E3550",
"L  c #2F3550",
"P  c #2E3551",
"I  c #2D3750",
"U  c #2D3751",
"Y  c #2F3650",
"T  c #2E3750",
"R  c #2F3651",
"E  c #2F3751",
"W  c #2E3651",
"Q  c #273951",
"!  c #2D3850",
"~  c #2E3851",
"^  c #2D3A51",
"/  c #2F3A50",
"(  c #2C3852",
")  c #2F3852",
"_  c #2E3952",
"`  c #2F3952",
"'  c #2F3A53",
"]  c #2F3B52",
"[  c #2D3A54",
"{  c #2F3B55",
"}  c #2C3B53",
"|  c #2F3F58",
" . c #303750",
".. c #303751",
"X. c #303752",
"o. c #303753",
"O. c #303751",
"+. c #303850",
"@. c #313950",
"#. c #313851",
"$. c #303B51",
"%. c #323A51",
"&. c #313852",
"*. c #313953",
"=. c #323853",
"-. c #323953",
";. c #303A53",
":. c #343A51",
">. c #353D52",
",. c #363C52",
"<. c #353C50",
"1. c #323955",
"2. c #333A54",
"3. c #323B55",
"4. c #343B55",
"5. c #323C55",
"6. c #353C56",
"7. c #353D56",
"8. c #353D57",
"9. c #363D57",
"0. c #333A53",
"q. c #313E58",
"w. c #313F59",
"e. c #353E59",
"r. c #383F59",
"t. c #383E5A",
"y. c #2E4153",
"u. c #2F4159",
"i. c #344355",
"p. c #384056",
"a. c #374857",
"s. c #32405A",
"d. c #33415B",
"f. c #34425B",
"g. c #39405A",
"h. c #3A415B",
"j. c #38425C",
"k. c #39435C",
"l. c #3B425C",
"z. c #3B425E",
"x. c #3C435D",
"c. c #3A445D",
"v. c #3B455E",
"b. c #3D445E",
"n. c #3E455F",
"m. c #3B435C",
"M. c #34485E",
"N. c #3B4A5C",
"B. c #364561",
"V. c #3D4662",
"C. c #3C4A62",
"Z. c #3C4969",
"A. c #3E5167",
"S. c #41495E",
"D. c #404761",
"F. c #404761",
"G. c #414863",
"H. c #424963",
"J. c #414864",
"K. c #424965",
"L. c #444B65",
"P. c #454C66",
"I. c #424A64",
"U. c #454E69",
"Y. c #435163",
"T. c #495367",
"R. c #43526B",
"E. c #49546C",
"W. c #4D586D",
"Q. c #50586E",
"!. c #4D5870",
"~. c #515C72",
/* pixels */
"r 6.n.h.x.h.r.h.n.h.h.d.q.q.c [ Y Y Y Y *.*...* 4.D.r.#.#.*.#.5 x x 7 x x x Y Y h r r , h.V.x.x.c.c.z.5.#.6.6.6.4.4.6.6.*.r.h., ",
"P.h x h 8 x 7 r ....Y [ 5.[ H q 7 7 x x Y r h 4 z.#.#...x 8 8 5 x x 7 8 x r ..#.#.h h * n.h.Y Y d d Y / x x x x x x r x 8 x ..* ",
"P.Y 4 7 x 7 x 7 7 8 x d q d d 5 7 7 x x r r h 5 6.x Y Y x 8 7 5 x x 7 x x x h h Y Y h 4 *.7 x 8 7 7 5 7 5 5 7 8 x 8 7 5 5 5 7 * ",
"L.r 7 x h x x x 7 x 7 0 x 0 0 0 x x x 0 h h ..5 4.x r x x x x 7 ..x x x x r r r x r r * ..x x x 7 7 q q q 7 7 x r r r x 7 7 x + ",
"H.x 7 h Y #.#...x 7 e 0 0 0 0 0 e 0 0 0 0 x h 7 6.7 x h x 8 x 7 #.h r r r h h r r r x + #.r x x 7 q x 7 7 7 8 x Y #.Y x 7 7 x * ",
"H.r 7 x h #...Y h x 7 7 5 7 x x 7 7 7 4 7 5 7 * h.x x x x 7 x 4 N n h h d x h h #.N 7 * #.x 8 x 7 x x 7 7 7 q x / *.Y d x 7 0 % ",
"K.r 5 0 e ........h 4 4 7 7 x 7 8 h h h h r r * 6.x 7 4 4 7 x 4 n N h H d d h N N e 5 * h x 7 7 0 0 6 x 0 7 q d / #.Y / #.0 6 % ",
"z.x 4 7 e ......#.#.x * 0 x 7 x ..r h h h r r 4 #.8 h 7 4 0 7 4 e 2.h d d d h v h 0 6 * h 0 7 7 0 0 0 h e 7 q d / / / / v 0 5 % ",
"z.8 4 x e h ..#.#...h 7 * 7 4 7 h Y ....h 7 x 4 6.x #.x 4 7 x 0 >.N h d d h h v N 0 0 : >.0 0 0 x x x e h 7 7 x Y / / / v 7 5 * ",
"K.Y 4 0 e h Y ..Y h h 0 5 5 0 4 x #.#.#.x 7 x x z.8 ..#.7 - 0 7 e x x d / Y #.#.N 0 0 5 >.0 0 e h e x x x 7 7 x d Y / d q 5 : O ",
"V.*.7 7 0 h x x x x 7 7 4 5 7 7 4 Y 4...h 7 h v V.Y Y #.h 7 4 * 5 4 - x v ....>.0 : 9 9 >.a 0 a v h h h x 5 5 q c q 5 5 0 5 %   ",
"V.q.q 7 5 7 7 7 5 5 7 8 7 7 x x 7 , Y 4.#.h v 0 0 x 7 5 4 4 7 4 7 7 * * ; 7 8 , - 5 9 b b b 0 9 q 7 7 7 < < < 1 q q < 5 * O o   ",
"V.q.x x q 7 7 7 5 4 7 x h r x x 7 4 x 6.6.#./ 9 h.U.B.6.#.#.6.h.h.h.k.N N n.D.x W.n.k.C.R.R.R.R.R.M.d.c [ M.M.B.B.M.B.M.d./ p.- ",
"V.q.Y Y d h r x 7 7 x h ..x 8 7 x 5 8 4.*.#.v 5 n.*.G r 7 4 5 7 h h e 5 : * 7 5 V.9 q ( | u.d.u.M.u.q < q q c q q q q 3 q 3 q = ",
"V.Y Y Y h #.#.h x r h ..#.8 7 7 5 5 ..#.*.#./ 5 p.H G x 7 7 7 7 8 x h e 0 5 0 * a.c Q } | u.d.d.d.y.c < 3 F F c c c c q q < 9 $ ",
"B.Y x x x Y *...h h Y ..Y 7 7 4 4 x ..Y ..#.#.0 k.G x 5 7 8 7 7 5 7 x e e 0 0 - C.F q c } y.y.y.u.} q 3 < c c c c q q 9 9 5 9 $ ",
"B.H 0 0 x 8 x x x h Y h x x 4 4 x h h n n h h 5 h.h 7 7 8 7 7 7 5 5 8 x h h h 5 p.q q c } y.u.u.d.( q q < q c q 9 9 9 2 2 9 q $ ",
"B./ / v h 8 4 5 7 8 x x r 5 4 r x x n n n n Y 5 z.h 7 8 x 8 7 7 7 7 x h Y ....5 | 2 q Q | u.u.u.d.( c c q < 9 < 9 > 9 9 9 q 9 $ ",
"Z.[ / / x 7 7 7 8 7 5 7 x 4 8 x x x h h n h 4.5 4.8 7 8 h r x 7 7 r x x h r x < | q c Q | u.u.u.| ( c ( q < < 9 b 9 9 9 9 9 q - ",
"Z.q.d d x 5 7 8 x x 8 7 8 * x 8 6 x x x x r #.4 x 7 8 x #...r x r Y h x x 8 7 < d.q Q Q } d.d.u.| } F F q < 9 q b b 9 9 q 9 v < ",
"Z.q.0 q 7 7 x r h ..Y h 7 * x 7 6 x x x x r #.7 #.7 x r #.#...h Y ..h x x 7 7 - a.c c Q } d.d.u.| } c q q < q v y.y.c 2 q 9 v < ",
"C./ x 7 5 7 x x ..#.#.Y h 4 7 7 6 0 x e e N N 0 N 5 0 x h 4.#.h Y d x 0 e 0 7 & M.c Q ( | d.u.| } Q q q 2 q } } y.i.} 9 q q c < ",
"n.4.r x 8 x h *.6.*.*.4.7.4 7 0 0 e 0 M M e 0 : N : 0 x x 4.*...Y H 5 0 S 0 0 < M.c c | d.| } } v c q q < c } | | | } c 9 q c < ",
"* * 4 * , * O * 4 4 4 , 5 O O : ; % O + % : : * 5 ; * * * * 5 , < , , 5 < - % & a.q c ( ( c c q q q q < q ( } | } } } ( < q c & ",
"V.U.n.z.z.h.n.H.V.V.P.U.K.x 6.S.n.p.n.n.p.#.9.#.p.p.>.h.h #.6.* d.w.d.q./ v 0 - i.9 q q q q q q q q < < c } | | } | } v 2 q c & ",
"K.x.7 7 7 7 8 r x r #.*.*.4 0 e d v v 0 0 4 5 5 x e x r 7 x #.7 d.q F q 1 * % & c 2 q 9 q 9 9 q q < < v | | | | | i.| v q 9 < & ",
"H.#.7 7 7 7 7 x x r h Y Y 7 7 h / d d q 7 7 4 : 7 x x 8 8 h Y 7 B.7 q < < * - $ c < 9 9 q 9 2 < < 3 c | ( ( ( ( } } } c q 2 q $ ",
"H.Y 7 8 7 7 q x x d h x 7 4 4 x r x x x 7 7 5 7 N h e 5 8 Y ..5 q.7 < < < * - * i.< < c q < q ( Q } ( Q Q v c c c b } c q 2 c = ",
"H.r 7 8 7 7 q q x x x x 8 7 7 7 5 7 7 7 x x x e h 7 0 5 Y Y #.4 ( < < - - * * & N.q < q < 9 v ( ( } Q c ( v c c q q q c q < c = ",
"z.x 5 7 8 7 5 5 q q x r x x x 7 7 7 7 7 x h h N h 4 5 5 Y Y #.4 c * - - = $ * - a.v q < < c ( } } v c c q v v c q q q c v 9 q = ",
"x.r 5 7 x x 7 7 7 q x x x x x x x 8 7 7 8 x e h h h * 7 x *.#.: c = - & $ * * - i.v } c c ( ( ( v } v 9 9 q c v v q q q c q 0 = ",
"x.r 7 x h h x x 7 7 7 x x x r h h x 7 7 8 7 x e 0 h x 4 J Y #.* - = & & $ $ * * v q q < 9 < < < - - - - $ $ $ = < - = & * - - O ",
"z.r 7 7 e r Y r 7 7 7 7 x x r h x 8 5 x 7 7 5 0 0 0 h 8 4 x e * H.V.h.p.7.7.h.h.Y x z., n.H.6.n.h.7.h.h.h.7.7.7.7.7.z.z.r.7.7.7 ",
"z.Y 7 5 x h h x 5 7 7 7 7 7 5 7 7 4 4 x 0 0 5 5 7 q d e 0 : % % H.8 h x 8 8 7 4 5 x x 5 7.x x r x h r x r x x 7 7 7 x x 7 5 x , ",
"z.*.x 5 x h h 7 7 8 8 7 7 7 7 5 8 7 0 0 0 0 7 5 5 0 0 0 e e > # m.8 r x x 4 x h h ..r 4 z.* * 5 7 x h Y h x x x 8 x 8 x 5 7 x * ",
"z.*.x 4 0 h h 7 5 7 x x x 8 x x x x 0 0 0 0 0 7 5 0 x e N N e % n.x x 7 7 7 #.Y ..#.Y 4 h.7 7 * * 8 h h Y h h x x x x x 7 7 x * ",
"7.7.x 5 7 x 7 7 7 7 7 x x h x 7 0 0 0 0 0 0 0 0 0 0 0 h #.#.N : n.x 8 7 7 7 7 Y #.*...5 h.7 7 x 4 * 5 x h h e x e e e 0 5 5 x * ",
"7.7.h 7 5 5 5 x x 8 8 x x h h 7 7 N N e 0 x 7 x x x x h *.6.6.5 K./ h q 0 5 7 7 Y *.Y 7 x.5 7 7 8 7 4 4 4 x N h h h e 0 5 0 e * ",
"7.5.h 0 5 5 4 x r x x x e h >.0 4 #.#.#.h x x x r x r h #.4.4.4 K./ h 0 0 7 8 5 7 7 x 7 x.7 x x 8 7 8 8 7 : 0 h h e x x 7 x h : ",
"7.[ / q 5 4 7 x r x x x h N #.0 4 N #.h h h x r r x h h #.6.4.* K.Y h 0 0 q 7 7 x 8 4 * V.h x x x h h x r 7 * 7 h x x 0 7 0 e * ",
"q.[ h q : 5 r x x r h h N #.n 7 4 h #.N N h Y #.#.Y ....#.6.#.4 V.H / d 0 7 7 7 7 8 x * V.h r h #.#.#...x x : 4 7 x x 0 7 7 x * ",
"j.Y q 0 - x 8 x r h h h h h h 4 4 h 0 x h h ..4.#...#.#.2.4.#.5 V.x d 0 0 7 7 7 x 7 h 4 x.r ....#.*.4.4.x x 7 0 : * 5 0 0 0 N * ",
"#.x 7 * : x 8 x Y ..h h h h x 4 : 5 5 7 7 0 x v #.Y h h / *.x * V.7 q 0 0 0 7 7 x x h 4 x.h #.#.....#.4.Y 8 4 7 x 7 7 7 0 7 e 5 ",
"% 4 ; * * 5 8 8 5 * , 4 ; * * + O o O . % - % * 0 q 7 x 7 1 * % z.5 5 7 0 0 7 0 6 0 h 8 D.Y ........#.#.Y 8 , 7 x ..#.>.#.h 7 * ",
"..9.1.r.x.r...r.x.t.*.4.6.4.#.x 0 h.6.* W.Y.k.k.h.c.c.c.C.B.p.0 7.5 7 5 9 0 7 7 7 7 x 5 n.h ....#.#.*.#.h x 4 4 h *.#.#.N #.0 o ",
"7.8 r 8 8 r x 8 8 r r 8 7 5 5 * 7 x x 5 L.0 9 9 0 q 0 q q q 9 - 7.5 q q 0 0 0 x x x 7 4 x.x ..#.#.#.#.#.h x 5 4 8 x x 0 x x h * ",
"r.8 8 8 8 r ..J J ..Y r 8 7 8 4 7 x h q L.9 9 q c c d d F F q 9 p.q d 0 e e e e h x 6 5 z.x Y #.#.....#.h x 5 7 x x x 7 x x h : ",
"9.0 6 7 7 8 8 r r r Y r 8 8 7 7 8 x Y q U.q c c c c v d Q q q 5 c.d / v v 0 x h h h x 4 h.x h #.#.#.....r 7 7 x r x 8 7 0 x h 4 ",
"c.x 7 7 5 7 7 8 8 8 8 8 8 8 8 8 x r ..< A.c c c c c v v c q q 2 c.d Y d d q x x h n h 4 r.7 h *.4.#.#.Y 8 7 7 0 h h x 0 0 0 x 4 ",
"V.H q 7 5 5 7 8 8 8 8 8 7 7 8 r r r x 5 C.q ( c c c c c 9 q q 9 c.x x 7 5 7 7 7 x N e 4 6.7 h #.#.....r 8 7 7 0 h e x x 0 x 0 * ",
"q.Y x 7 7 7 5 5 7 7 8 7 5 7 8 J r 8 5 5 M.c } c c q c 9 q c v 9 h.x 7 < q x x 8 7 : 7 * h.x h h h h h x 7 7 7 x h h e x x e e * ",
"q./ x 8 7 7 5 7 7 8 r r 7 5 8 8 7 4 4 < M.c } ( c c q 9 q ( } - d 5 * , 4 7 5 , 4 * % + n.h x x x x x 7 7 7 x e h h e x e e e * ",
"5.H q 8 7 7 7 8 Y 1.....x 5 5 7 5 5 7 * f.c } ( c c q 9 c } v c E.K.7.h.c.V.K.V.S.m.h.4 n.x 7 7 7 7 7 5 7 x x e h h e e h h h * ",
"*.x x 7 7 7 7 8 x Y 8 x x 7 5 5 7 8 7 < c.( } v q q q q v b c 9 C.7 0 5 x r #.Y h x x 5 h.7 7 7 7 5 7 5 7 7 e h e h e e h h h : ",
"6.x 7 7 8 8 8 5 7 7 5 5 8 7 5 x 8 8 7 * x.q c q q q 9 0 b b > - C.q 0 5 7 r h #...r 7 5 6.4 7 7 7 7 0 0 5 5 0 e N h e e x h e % ",
"* 5 5 7 x 8 7 5 4 5 5 , 4 4 5 4 * 4 , * h 4 < < 5 5 * - - - O % C.c 0 5 4 4 5 7 8 7 x < < < 5 5 5 5 - - * * : * : 5 4 5 5 4 * * ",
"6.D.h.x.n.n.H.L.x.7.r.4.6.z.n.8 L.U.H.H.n.V.L.z.5.7.p.*.#.n.k.0 q.d 0 9 7 x h h ..h x < E.V.W.!.W.~.E.E.E.E.Q.h.p.T.P.E.P.H.L.E.",
"x x x h ..h r h 7 4 5 5 7 x ..7 x.x r x x x x 7 5 5 7 7 h 6.N 5 | q 0 0 7 x #.*.7.6.Y q E.d c.C.N.N.C.C.c.p.p.v >.N h Y x x x 7 ",
"7 x r Y #.#.*.#.h x 4 4 x x x 4 h.8 r x x x x x 7 7 7 7 r 4.>.5 B.7 0 5 7 r 6.6.h.r.#.q Y.v i.N.C.N.a.N.N.k.p.N N x h h r x 7 7 ",
"7 x x x h h #.#...r 7 5 7 0 x * m.x x 0 0 x h h 0 7 7 7 0 e e : V.7 0 9 0 0 >.6.p.6.#.5 W.b i.N.N.a.a.a.a.a.i.a 0 e e h e 0 7 7 ",
"7 x x x x e #.#.#.#.h 0 7 0 0 * >.7 7 4 4 0 x x x 0 x x 7 5 : : V.5 0 0 q 7 0 e N #.e : T.0 y.N.Y.n.a.i.i.i.i.a 0 e e h e x 0 0 ",
"7 6 x x x x e N N N h x 7 7 7 * #.7 7 7 5 4 7 7 x x x r 7 5 5 * V.5 0 0 q 7 5 4 5 7 0 - k.b y.a.N.a.i.i.i.i.i.a 0 0 e h x 0 0 0 ",
"e x x h h e 0 e N N h h e 0 x * h x 0 e x 0 e x h h h h h 0 0 * V.q 0 0 x x x 0 4 5 5 % Y.a.i.i.i.i.i.i.i.i.a.S 0 a N h x 0 x e ",
"* * * % % % % % : ; * * * * % . * * 4 * % * * O * * * * * * O O V.q 0 0 0 x 0 x x x : o a 9 9 9 9 9 9 9 9 9 9 : * * * - * * * * "
};
