/* XPM */
static const char *sametplayer[] = {
/* columns rows colors chars-per-pixel */
"64 64 244 2 ",
"   c #040404",
".  c #05060A",
"X  c #0A0A0B",
"o  c #080808",
"O  c #130E0B",
"+  c #0C0D13",
"@  c #060713",
"#  c #0F1017",
"$  c #12131C",
"%  c #151415",
"&  c #12100F",
"*  c #291A13",
"=  c #392719",
"-  c #2E2319",
";  c #131523",
":  c #16192B",
">  c #0E1325",
",  c #332D2C",
"<  c #1E2135",
"1  c #4B2D1A",
"2  c #7A3F08",
"3  c #763C07",
"4  c #66321F",
"5  c #4B3427",
"6  c #593928",
"7  c #4C3A31",
"8  c #663925",
"9  c #6F3F28",
"0  c #7E4109",
"q  c #6A4A1B",
"w  c #4A443B",
"e  c #584738",
"r  c #644636",
"t  c #774A35",
"y  c #764D33",
"u  c #2B3867",
"i  c #343D65",
"p  c #323E6B",
"a  c #323E71",
"s  c #2A3C72",
"d  c #2A335B",
"f  c #453F42",
"g  c #36416C",
"h  c #38446D",
"j  c #364373",
"k  c #384574",
"l  c #374679",
"z  c #39497B",
"x  c #384879",
"c  c #2D4077",
"v  c #554E4D",
"b  c #6E584E",
"n  c #766857",
"m  c #515772",
"M  c #766D6A",
"N  c #786E69",
"B  c #7B726E",
"V  c #77756D",
"C  c #7D7672",
"Z  c #7B7B74",
"A  c #787875",
"S  c #706671",
"D  c #596168",
"F  c #83450B",
"G  c #86480B",
"H  c #8A4A0D",
"J  c #8C4C0D",
"K  c #884606",
"L  c #914F0D",
"P  c #94510E",
"I  c #9A550E",
"U  c #9D590F",
"Y  c #8E4D10",
"T  c #904E11",
"R  c #955311",
"E  c #9A5611",
"W  c #9D5912",
"Q  c #8B571E",
"!  c #A15C0F",
"~  c #A35D12",
"^  c #A76012",
"/  c #AB6414",
"(  c #AF6815",
")  c #B46B15",
"_  c #B86E16",
"`  c #B66C18",
"'  c #BC7216",
"]  c #BD7319",
"[  c #BD6F0C",
"{  c #885739",
"}  c #945C3E",
"|  c #824B30",
" . c #8F653B",
".. c #BC7A26",
"X. c #C17616",
"o. c #C37917",
"O. c #C17619",
"+. c #C57A19",
"@. c #C97E1A",
"#. c #CA7C13",
"$. c #C1730E",
"%. c #875A44",
"&. c #945E45",
"*. c #9A6748",
"=. c #966B51",
"-. c #9B735A",
";. c #8B694F",
":. c #A26B4D",
">. c #AA7A5C",
",. c #A87555",
"<. c #B27D5D",
"1. c #A4714D",
"2. c #897569",
"3. c #9A7A68",
"4. c #837B75",
"5. c #877B76",
"6. c #947D74",
"7. c #876C60",
"8. c #AA7B63",
"9. c #B27E61",
"0. c #7F8079",
"q. c #CC831C",
"w. c #CD8116",
"e. c #D0861E",
"r. c #D38A1E",
"t. c #D28412",
"y. c #D48C21",
"u. c #D48B22",
"i. c #DA9325",
"p. c #D99325",
"a. c #C68629",
"s. c #E39C2A",
"d. c #E59D27",
"f. c #E9A12C",
"g. c #F3A82D",
"h. c #E2951D",
"j. c #84837A",
"k. c #8A857B",
"l. c #8C897E",
"z. c #838378",
"x. c #95827A",
"c. c #998579",
"v. c #8E826E",
"b. c #AA846A",
"n. c #B48363",
"m. c #BA8868",
"M. c #B88E73",
"N. c #B99378",
"B. c #AB9075",
"V. c #CE914F",
"C. c #C59778",
"Z. c #C2916E",
"A. c #CDA877",
"S. c #727586",
"D. c #555F82",
"F. c #7D8798",
"G. c #8E8C81",
"H. c #838882",
"J. c #928E82",
"K. c #958986",
"L. c #959185",
"P. c #999286",
"I. c #9C9589",
"U. c #9D998C",
"Y. c #959489",
"T. c #878A96",
"R. c #9B9B96",
"E. c #908E8A",
"W. c #A48D83",
"Q. c #A19A8E",
"!. c #A69688",
"~. c #A49D92",
"^. c #A99D97",
"/. c #B99B89",
"(. c #A6A195",
"). c #A9A296",
"_. c #ADA59A",
"`. c #AFA89D",
"'. c #B1A99E",
"]. c #B4A69A",
"[. c #B1AF92",
"{. c #979AA5",
"}. c #9DA3AE",
"|. c #B3ACA3",
" X c #B3AEA9",
".X c #BAADA5",
"XX c #B5B1A5",
"oX c #BBB4AA",
"OX c #BAB4AA",
"+X c #A7ABB6",
"@X c #BDBBB3",
"#X c #BAB7B9",
"$X c #ADACB0",
"%X c #C99C82",
"&X c #CCA687",
"*X c #D2AA8B",
"=X c #D3AC94",
"-X c #D7B398",
";X c #CDAB96",
":X c #C4B5AB",
">X c #C3BDBC",
",X c #C5BBB5",
"<X c #DBB7A1",
"1X c #E4BDA5",
"2X c #C5C1BC",
"3X c #D7C8BA",
"4X c #E7D3B9",
"5X c #B8BCC5",
"6X c #ADB6C2",
"7X c #C1BFC2",
"8X c #BCC4CE",
"9X c #CBC5C3",
"0X c #CCCACB",
"qX c #C5C4C7",
"wX c #D2CDCC",
"eX c #D5CCC5",
"rX c #D6D1CD",
"tX c #C4CBD3",
"yX c #CBCDD3",
"uX c #C6CDD9",
"iX c #D1CFD1",
"pX c #CDD1D6",
"aX c #CBD3DC",
"sX c #D2D2D5",
"dX c #D3D6DB",
"fX c #D5D9DE",
"gX c #DADBDD",
"hX c #DAD6D5",
"jX c #D4DBE2",
"kX c #DADDE2",
"lX c #D5DEE9",
"zX c #CED6E4",
"xX c #DCE1E6",
"cX c #DCE4EB",
"vX c #D7E2EA",
"bX c #DCE8F3",
"nX c #E3E9EE",
"mX c #E2E6EA",
"MX c #E4ECF3",
"NX c #E8EFF5",
"BX c #ECF5FB",
"VX c #E9F4FB",
"CX c #F9FCFE",
"ZX c #F5E3C7",
/* pixels */
"F F F F F F F F F F F F F 0 F F F F 0 0 F 0 2 2 0 0 2 2 2 2 2 3 3 3 3 3 3 3 3 y 0.Z Z Z Z Z Z Z Z Z Z A Z Z Z Z V V V V V V V V ",
"H G F F F G F F F F F F F F F F F F F F F F 0 0 0 0 0 2 2 2 2 2 2 3 3 3 3 3 3 N 0.Z Z Z Z Z Z Z Z Z Z Z Z Z Z Z Z Z V V V V V V ",
"H H H H H H H H H H H H H H H G F F F F F F F F F F F 0 0 0 0 2 0 2 3 3 3 3 y H.0.0.0.0.0.Z Z Z Z Z Z Z Z Z Z Z Z Z Z Z V V V V ",
"T T T T Y Y Y Y J J J J J H H H H H H H F F F F F F F F F F 0 0 0 0 0 0 2 2 2.H.z.z.0.z.z.0.Z Z Z Z Z Z Z Z Z Z Z Z Z Z Z Z A A ",
"R R R R R R R R P R R T J J J J J J J J H H G G G G F F F F F F F 0 0 0 2 { H.j.j.j.j.j.j.z.0.0.Z Z Z Z Z Z Z Z Z Z Z Z Z Z Z Z ",
"R R R R R R R R R R R I P P P P P T T J J J H H H H G G G F F F F F F 0 0 2.H.k.k.j.j.j.j.j.z.z.z.z.z.z.Z Z Z Z Z Z Z Z Z Z Z Z ",
"W W E R R R R R R R R R R R I I I I P T J J J J J J H H G G G G G F G K { E.l.G.l.l.k.j.j.j.j.j.j.z.z.z.z.z.z.z.4.4.4.4.Z Z Z Z ",
"~ ~ W W W W W W W W E E R R R R R I I I P P T T J J J J J J H G G G G G v.E.G.G.G.l.l.l.l.l.j.j.j.j.j.j.j.z.z.z.z.z.4.4.4.4.4.4.",
"~ ~ ~ ~ ~ ~ ~ W W W W W W W W W W R I I I I I P P P T J J J J J J J K  .Y.G.G.G.G.G.l.l.l.l.l.l.l.k.k.k.k.k.j.j.j.z.z.z.z.z.4.4.",
"/ ^ ^ ~ ~ ~ ~ ~ ~ ~ ~ ~ ~ ~ ~ ~ ~ W W E R I I I I P P P P T T J J J J c.Y.L.L.J.J.G.G.G.G.G.G.l.l.l.l.l.l.l.l.k.k.k.k.k.k.k.k.k.",
"/ / / / / / ^ ^ / ~ ~ ~ ~ ~ ~ ~ ~ ~ ~ U U U I I I I I I I P P P P K  .U.P.P.L.L.L.J.J.J.G.G.G.G.G.G.G.G.l.l.l.l.l.l.l.l.l.k.k.k.",
"( / / / / / / / / ^ / / ~ ^ ^ ~ ~ ~ ~ ! ! ! W W U U I I I I I I I P c.U.I.Y.Y.P.P.L.L.L.L.J.J.J.J.J.J.J.G.J.G.G.J.l.l.l.l.l.l.l.",
"( ( ( ( ( ( ( ( / / / / / / / / ^ ^ ~ ~ ~ ! ! U U U U U U U I R L *.R.I.U.I.I.I.Y.Y.Y.P.P.P.L.L.L.J.J.J.J.J.J.J.J.J.J.J.l.J.J.J.",
") ) ) ) ) ) ( ( ( ( ( ( / / / / ^ ^ ^ ^ ^ ~ ~ ! ! ! ! ! U U W I W B.R.U.U.U.U.I.I.I.Y.I.Y.P.P.P.P.P.L.P.P.L.P.J.J.J.J.J.J.J.J.J.",
"` ` ` ` ` ) ) ) ) ) ( ( ( ( ( ( ( ( / ^ ^ ^ ~ ~ ~ ~ ~ ~ ! ! W I 1.R.U.(.(.U.U.U.U.I.I.I.I.I.I.P.P.P.P.P.P.P.P.P.P.L.P.J.J.J.J.J.",
"` ` ` ` ` ` ` ) ) ) ) ) ) ) ( ( ( ( ( / ^ ^ ^ ^ ^ ^ ^ ~ ^ E 4 = , , , 7 N (.U.U.U.U.U.I.I.I.I.I.I.I.P.P.P.P.P.P.P.P.P.P.P.P.P.P.",
"' ` ` ` ` _ ` ) ) ) ) ) ) ) ) ) ) ( ( ( / ^ ^ ^ ^ ^ ^ ^ R 1 % % & O X X O b _.U.~.U.U.U.U.U.I.I.I.I.I.I.I.I.I.P.P.P.P.P.P.P.P.P.",
"] ] ' ] ' ' _ _ ` ) ) ) ) ) ) ) ) ) ) ( ( ( / / ^ ^ ^ / 5 % & X X X X & X % I.(.~.~.U.Q.Q.U.U.U.U.I.I.I.I.I.I.I.I.I.I.I.I.I.I.I.",
"] ] ] ] ] ' ' ' ' _ ` _ _ _ ) ) ) ) ) ) ) ( ( ( ( / ( Q - % * = = - - % O o , _.~.~.~.~.Q.Q.Q.Q.U.U.U.U.I.I.I.I.I.I.I.I.I.I.I.I.",
"O.O.] O.] ] ] ] ' ' ' ' _ _ _ _ _ ) ) ) ) ( ( ( ( ( ) q $ 6 ,.>.1.*. .y 1 O o k._.~.~.~.~.~.Q.Q.Q.Q.Q.Q.Q.Q.Q.Q.I.I.Q.Q.Q.Q.Q.I.",
"O.O.O.O.O.] ] ] ' ' ' ' ' ' ' _ _ _ ) ) ) ) ) ) ) ( ) 6 , m.Z.m.>.1.*.{ 9 1   v |.~.(.(.~.~.~.~.Q.Q.Q.Q.Q.Q.Q.Q.Q.Q.Q.Q.Q.Q.Q.D ",
"+.O.O.+.O.O.O.] ] ] ' ' ' ' ' ' ' _ ) ) ) ) ) ) ) ) ) e 2.C.m.m.1.:.*.{ 9 8 O v |.(.(.(.(.(.~.~.~.~.Q.Q.~.Q.Q.Q.Q.Q.Q.Q.Q.).A d ",
"+.+.+.+.O.O.O.O.O.O.O.] ' ' ' ' ' ' ' _ ) ) ) ) ) ) ) n /.b b 3.n.n.>.y 5 6 * v XX(.).(.(.(.(.~.~.~.~.~.~.Q.~.~.~.~.~.Q.).K.i i ",
"@.+.+.+.+.O.O.O.O.O.O.O.X.' ' ' ' ' ' ' ' _ _ _ ) ) ) ;.V l.n e ;.=.r = 7 7 = M XX_._.).).(.(.(.(.~.~.~.~.~.~.~.~.~.~.~.Q.m u i ",
"@.@.@.@.+.+.+.+.O.O.o.o.O.X.X.X.X.' ' ' ' ' ' ' _ ) ) ;.).[.n r n r w w w r = N XX_._._.).).).).).(.(.(.~.(.(.~.~.~.~.).m u i i ",
"@.@.@.@.+.+.+.+.+.+.O.O.O.O.O.O.o.X.' ' ' ' ' ' ' [ V.;XN.B.b.-.-.:.5 b r r 5 b '.`._._._._.).).).).).).).).).).).~.].A u i i i ",
"q.@.@.@.@.@.+.+.+.+.+.+.+.+.O.+.O.o.X.' ' ' ' ' ' [ V.=X&XB.3.-.C.Z.6 t ;.y 6 4 3.XX_._._._._._.).).).).).).).).).].E.i i i i i ",
"q.q.q.q.q.@.@.@.+.+.+.+.+.+.+.+.O.o.o.X.X.' ' ' ' ..C.n.-X*Xm.m.%Xb.8 %.,.{ 8 4 c.XX_.`._._._._._.).).).).).).)._.~.m i g i p p ",
"q.q.q.q.q.q.q.@.@.+.+.+.+.+.+.+.+.+.o.o.o.X.' ] [ m.@XN.&X&X>.-.;.b 1 y 1.%.1 b XX`.`.`._._._._._._._._._._._._.].m u g i p p p ",
"e.q.q.q.q.q.q.q.q.@.@.@.@.@.+.+.+.+.+.+.o.o.' ' ...X@X].c.N.%.8.8.&.t 5 y r 1 !.XX'.'.'.`.`._._._._._._._._._.].S.u g g p p g p ",
"u.u.q.q.q.q.q.q.q.q.q.q.@.@.@.@.+.+.+.+.o.o.O.[ M.@XOXXX2.N.m.M.n.=.%.t { 1 B oX'.|.'.'.'.]._._._._._._._._.].E.i g g g g g g g ",
"u.u.e.e.q.q.q.q.q.q.q.q.q.@.@.@.@.+.+.+.o.o.X...oXoXOX,XN 7.b.n.<.*.&.t 1 , _.XX|.|.|.'.'.'._._._._._._._.'._.m i g g g g g g g ",
"y.y.u.u.u.e.q.q.q.q.q.q.q.q.q.q.@.@.+.+.+.O.$.N.@XoXOX@X!.v v 3.b.-.r = X 7 OX|.|.|.|.|.'.'.`.`._._._._._.].m p h h h h h h h h ",
"p.y.y.u.u.r.r.e.q.q.q.q.q.q.q.q.q.q.@.+.+.o.a.:X@X@XoXOX-Xc.w w e 7 - % * b OX|.|.|.|.|.|.'.'.`._._._._..XS.u k h h h h h h h h ",
"i.p.y.y.y.u.r.u.r.u.q.q.q.q.q.q.q.q.q.@.+.o.C.2X@X@X@XoX*X*XB.n e 5 - = 6 7.oX|.|.|.|.|.|.|.'.`.].]._.|.T.p j k k k j h h h h h ",
"i.i.p.y.y.y.y.u.u.u.r.e.q.q.q.q.q.q.q.q.#.a.,X,X,X@X@X:X*X&X*X&XB.-.y r q 2.@X|.|.|.|.|.|.|.|.'.|.`.|.^.k g k k k k k j j h h h ",
"i.i.i.i.i.y.y.y.y.u.r.r.e.q.q.q.q.q.q.q.#.A.qX,X,X@X2XeX*X&X&X&XC.b.%.y t c.@X|.XX|.|.|.|.|.|.|.|.|.|.m p k k k k k k k j h h h ",
"i.i.i.i.i.i.y.y.y.r.u.u.r.e.q.e.q.q.q.w.a.2X2X@X2XrXcX+X&X*X&X&XC.b.=.&.y 2.OXXXXXXX|.|.|.|.|.|.|.OXS.a l k k k k k k k k j h h ",
"s.s.i.i.i.i.i.p.y.y.y.u.u.r.r.u.q.e.q.#.A.qX9X9XhXgXnXuX:XN.Z.Z.m.>.1.{ y K.].oXXXXX X X|.|.|.|.OXT.j k l l k k k k k k j j j h ",
"s.s.s.i.i.i.i.i.p.y.y.r.u.u.u.u.u.w.q.V.0XrXrXrXrXrXgXNXvXeX:X]./.N.b.3.^.|..X:X,X.XXX X X|.|.|.^.z k l k k k l l k k k j j j h ",
"s.d.s.s.i.i.i.i.p.y.y.r.r.r.u.u.w.A.rXhXgX3X,XwXwXwXdXdX8XvXBXNXMXgX0X0X$XA >X.X9X:X,X.X X X|. XD.j z l l l l l l k k k j j j j ",
"f.d.s.s.i.i.i.i.p.y.y.r.r.r.y.t.-XVXmXmXgX:X:XwXwXsXkXsX{.+XnXcXxXdX#X0X#XT.0X.XeX>X9X:X:XoX,XS.c z l l l l l l l k l k j j j j ",
"f.s.s.s.i.i.i.i.p.y.r.y.y.y.t.A.VXmXgXhXmX2X,XeX0XwXxXsXdXaXdXxXfXsX#XsXtX5X0XoXwXwX9X9X,X3X:XE.z l l l l z z z z l l k j j j j ",
"g.f.f.f.f.s.i.i.p.y.y.r.r.t.V.NXnXkXnXxXgXrX2X9X0XiXgXgXsXlXpXmXxXqX#XfX#X8X0X@X0XgX9XgX2X9X.X3XT.s j j j j j j j p j j j j j j ",
"1 = = = 1 p.s.i.i.p.r.V.A.V.4XBXnXmXfXmXkXsX9X0X0XsXsXgXwX8X+XxXnX#XqXkXS.+XsX>X0XxXwXfXwX2X9X>X,Xf . + + + + + + . < z j j j j ",
"          a.d.i.i.i.r.4XzX>XNXNXmXmXxXfXxXsX0XsX0XfXsXfXsX5XT.pXMX>XdXfX6XyXsX0X9XdXgXsXsXiXiX>X2XK.  . . . o o o   : l j j j a ",
"o o o o O a.f.i.i.i.r.4XbXsXBXBXnXxXkXkXfXxXsXgXsXkXdXdXdXsXjXyXxXqXfXjXaXdXdXsX0XiXgXsXkXgXiXwX>X|., . + @ o . o   : l a a a a ",
"o o o o X a.f.i.i.i.r.4XVXcXBXBXVXNXkXpXdXxXdXxXkXxXkXdXdXpXaXuXdX0XnX8X+XkXfXdXiXyXgX0XxXkXgX0X#X,Xv   + @ . o .   : l a a a p ",
"o o o o o a.s.i.i.p.r.4XVXcXBXBXNXMXNXjXqXjXgXcXcXcXxXfXdXpXpX}.#XpXNX+XT.xXjXdXyXyXgX7XfXnXkXsXqX,XM . + @ X X X   : l a p p p ",
"o o o   o y.g.f.d.d.h.ZXCXBXBXBXMXcXkXcXsXqXkXcXMXcXcXkXfXpXdX}.{.fXMX8XqXxXkXfXyXqXkX#XdXMXkXfXqX>X5.              > s u u u u ",
"X . o o X q q q q q q n D }.CXBXBXmXkXdXjXqXdXMXNXMXcXkXjXdXyXjXpX0XnXtXyXmXkXfXsXqXjX#XdXMXxXfX0X@Xx., , , 7 7 w w v S S S S S ",
"o . . o o . @ @ @ . @ .   A CXNXNXNXkXsXyXqXpXMXNXMXcXxXjXdXyXjXuXqXjX$XyXnXxXfXdX7XdX#XkXMXkXfXqX#X~.c.c.c.W.W.W.W.W.c.c.c.c.c.",
"o o o o o $ ; $ $ # # $ . +XCXBXBXNXmXjXsX5X8XMXNXMXcXxXjXfXyXjXuX}.dXA yXMXkXfXdX7XpX7XmXMXmXkXdX#XP.6.c.c.x.x.x.x.x.x.x.x.x.x.",
"o o o o o ; ; $ $ + # # . #XCXeX;X/.N.B.!.|.#XlXMXbXcXkXjXfXyXjXvX{.5X$XdXcXjXjXdX7X0XyXVXmXhXwX9X>X^.6.c.c.x.x.x.x.x.x.x.x.x.6.",
"o o o o X ; ; $ # + # + $ qX<XZ.m.<.,.*.{ %.K.tXcXcXvXlXjXjXtXlXlXvX#X>XjXvXyXjXjX7XqX,X;XM.<.,.*.{ 7.x.c.x.x.x.x.c.x.x.x.x.6.6.",
"o o o o + : ; # # $ $ . , :X&XC.Z.9.,.*.%.{ n {.tXlXjXlXjXlXtXcXjXbX0XyXdXjXqXjXjXqX#Xb.m.<.,.:.} t 8 2.x.x.x.c.6.N K.6.6.6.6.5.",
"        + : $ # # $ $ + $ /.<X%XZ.9.1.&.{ t b C +XuXuXjXjXlXtXbXaXvXqXyXjXfX#XjXjXqXK.b.m.<.,.:.} | 8 n x.6.x.4.v 7 4.k.5.5.5.4.",
"v v v v , ; $ + # ; $ + + /.1X*XC.9.*.t r 8 6 b {.5X8XzXzXlXtXbXaXbXpXtXbXvX$XuXuX5Xn M.Z.9.,.:.} | 8 r 6.5.x.w & % N k.5.4.4.2.",
", , < - < ; # + + ; $ + + B.1X=XC.m.*.t 8 9 r b k.{.+X5XuXzXuXbXtXtX XE.^.W.3.3.2.5.n M.C.m.<.:.} | 8 6 4.5.k., X X b 5.4.4.B B ",
"      . : ; + + + ; ; $ . 2.1X-X*XC.9.1.*.*.*.*.%.%.%.%.7.6.c.W.c.6.2.6.6.6.-.*.| t 6 8.C.9.<.:.} | 8 6 4.5.5.b X X v 5.B B B M ",
"X X X + $ + + + X $ ; $ . v 1X-X=X*XC.m.<.>.,.:.*.{ { { { } } ].pXpXpXpXtXvX X,.%.{ t %.8.8.,.*.{ t 4 6 4.4.4.4.M M 4.C B B M M ",
". . X + X X X X o # ; $ + - =X<X-X-X*XC.M.n.>.>.,.1.:.:.=.1.*.>XbXtX6XuXcXbX$Xt *.,.>.>.,.,.:.*.{ t 8 6 4.4.4.4.4.4.C C B B M M ",
". . X + X o . . o + : ; $ @ c.1X-X-X*X%XM.m.m.n.9.9.>.,.>.,.=..XF.T.T.tXjXcX5X%.C.Z.Z.m.n.,.:.&.{ | 8 r 4.4.4.C C C C C B B M M ",
". o X + X . . o o + : ; $ @ b 1X=X&XC.Z.m.m.m.n.>.>.>.>.,.,.=.!.uXT.6XvXvXjXtXb.C.C.C.m.m.9.,.*.{ { 8 b 4.4.C C C C C C C B M M "
};
