/* XPM */
static const char *wall[] = {
/* columns rows colors chars-per-pixel */
"64 64 255 2 ",
"   c #393E3D",
".  c #4A483D",
"X  c #594D3A",
"o  c #5A543D",
"O  c #624D36",
"+  c #65533B",
"@  c #6B593C",
"#  c #6A5638",
"$  c #765934",
"%  c #70552C",
"&  c #7B643B",
"*  c #75643B",
"=  c #6D6039",
"-  c #3E4649",
";  c #394B51",
":  c #4C4A43",
">  c #434949",
",  c #4C4D4C",
"<  c #454646",
"1  c #544E45",
"2  c #514C4B",
"3  c #584D45",
"4  c #4A524E",
"5  c #555245",
"6  c #5C5544",
"7  c #55544B",
"8  c #5A554B",
"9  c #5D5C4A",
"0  c #585A48",
"q  c #454C51",
"w  c #494B56",
"e  c #524E53",
"r  c #4D5152",
"t  c #495458",
"y  c #585856",
"u  c #625543",
"i  c #645B45",
"p  c #6B5D43",
"a  c #635C4C",
"s  c #6A5C49",
"d  c #655549",
"f  c #725D47",
"g  c #645B53",
"h  c #5C605A",
"j  c #63614E",
"k  c #6C634D",
"l  c #6A6448",
"z  c #756344",
"x  c #73654D",
"c  c #7C6C4C",
"v  c #786948",
"b  c #6C6453",
"n  c #686659",
"m  c #726554",
"M  c #746C53",
"N  c #7C6D52",
"B  c #756C5B",
"V  c #7B6D5A",
"C  c #7D7254",
"Z  c #7B735B",
"A  c #757258",
"S  c #797152",
"D  c #5F6664",
"F  c #686663",
"G  c #776F61",
"H  c #7A7666",
"J  c #7E7A72",
"K  c #495460",
"L  c #825E33",
"P  c #855C2A",
"I  c #83653C",
"U  c #896939",
"Y  c #936C3A",
"T  c #94723A",
"R  c #8B6E37",
"E  c #846C45",
"W  c #836D4B",
"Q  c #886B44",
"!  c #916E43",
"~  c #85734C",
"^  c #8B734A",
"/  c #897247",
"(  c #957242",
")  c #957B4C",
"_  c #9A7947",
"`  c #836D56",
"'  c #837253",
"]  c #8C7654",
"[  c #8E7B55",
"{  c #84745B",
"}  c #8B7B5B",
"|  c #85785A",
" . c #947D53",
".. c #927D5A",
"X. c #997C50",
"o. c #A17C4B",
"O. c #A37E53",
"+. c #837A62",
"@. c #8A7C62",
"#. c #847A69",
"$. c #8A7B6A",
"%. c #8D805F",
"&. c #9A8454",
"*. c #94835C",
"=. c #9B845B",
"-. c #978557",
";. c #9F8144",
":. c #A5844B",
">. c #A38453",
",. c #AB8C5B",
"<. c #A68959",
"1. c #AD915C",
"2. c #A5925A",
"3. c #B3935E",
"4. c #B7985D",
"5. c #8C836C",
"6. c #898568",
"7. c #938363",
"8. c #9E8A63",
"9. c #97886A",
"0. c #8B8576",
"q. c #968B77",
"w. c #9C927C",
"e. c #989277",
"r. c #A38F69",
"t. c #A78C63",
"y. c #AC9263",
"u. c #AC956B",
"i. c #A79569",
"p. c #B39463",
"a. c #B49966",
"s. c #BA9B65",
"d. c #B49B6C",
"f. c #BB9C6B",
"g. c #B59669",
"h. c #A39475",
"j. c #AD9B73",
"k. c #A3957B",
"l. c #AC9B7B",
"z. c #A79776",
"x. c #B39C73",
"c. c #BA9E73",
"v. c #B29E79",
"b. c #B99B75",
"n. c #A98A6C",
"m. c #BDA26D",
"M. c #BAA66C",
"N. c #BDA474",
"B. c #BFA975",
"V. c #B3A27D",
"C. c #BEA67B",
"Z. c #BEA97B",
"A. c #B4A075",
"S. c #AFA077",
"D. c #C19C71",
"F. c #C09E6C",
"G. c #C2A26D",
"H. c #C4A86E",
"J. c #C2A574",
"K. c #C3A975",
"L. c #CAAB75",
"P. c #C3A67A",
"I. c #C3AB7B",
"U. c #CAAC7B",
"Y. c #CAA678",
"T. c #C5B17B",
"R. c #CCB27C",
"E. c #CDB173",
"W. c #D1AB76",
"Q. c #9C9683",
"!. c #8E8985",
"~. c #A49B85",
"^. c #A49F97",
"/. c #ACA387",
"(. c #B2A48C",
"). c #BCAC8C",
"_. c #B9A684",
"`. c #BBB18B",
"'. c #B7AB94",
"]. c #BDB294",
"[. c #BEB39B",
"{. c #B8B495",
"}. c #ACA691",
"|. c #BEB8A3",
" X c #C4AC82",
".X c #CAAD83",
"XX c #C4AB88",
"oX c #C6B183",
"OX c #CBB384",
"+X c #C4B48B",
"@X c #CCB58B",
"#X c #CDB98C",
"$X c #C9B88A",
"%X c #D0B686",
"&X c #D4BA86",
"*X c #D2B68B",
"=X c #D3BB8D",
"-X c #DABD8D",
";X c #CDBB93",
":X c #C3B59B",
">X c #CBBB9C",
",X c #C5B696",
"<X c #D3BD93",
"1X c #D9BD94",
"2X c #D4BE9A",
"3X c #D9BC97",
"4X c #CAAE8E",
"5X c #C6BBA3",
"6X c #CBBDA2",
"7X c #D5BDA3",
"8X c #E0BD94",
"9X c #D7C58F",
"0X c #CDC29D",
"qX c #D6C196",
"wX c #DAC295",
"eX c #D6C39A",
"rX c #DAC49B",
"tX c #DDC99D",
"yX c #D9CA99",
"uX c #D7CA95",
"iX c #E1C69C",
"pX c #E2CA9D",
"aX c #E6CA9B",
"sX c #E4D29C",
"dX c #CCC1A6",
"fX c #D5C4A3",
"gX c #DCC5A2",
"hX c #DDCAA4",
"jX c #DDCCAA",
"kX c #D8C8A8",
"lX c #DFD0AB",
"zX c #DAD0AA",
"xX c #DCCEB3",
"cX c #DDD1B4",
"vX c #E1C6A3",
"bX c #E2CBA5",
"nX c #E8CDA5",
"mX c #E2CCAA",
"MX c #E8CEAA",
"NX c #E2C7A9",
"BX c #E4D1A5",
"VX c #E4D2AC",
"CX c #EAD3AC",
"ZX c #E9D5AA",
"AX c #E5CDB0",
"SX c #E5D4B2",
"DX c #EBD5B4",
"FX c #E6D9B5",
"GX c #EBDAB4",
"HX c #E4D5B9",
"JX c #EADBBB",
"KX c #F4DDB7",
"LX c #EFE1B6",
"PX c #F3E6C2",
"IX c #E4DEC4",
/* pixels */
"_.2XgXeXeXeXrXrXeXeXrXrXeXwXqXMXk.r.&XbXmXjXgXrX8XXXa '.bXgXgXgXmXmXmXmXmXT.s...,X,X2XjXgXgXtXtXeX_.c A.=X3XeXqXtX<X%XrXrXrX=X>.",
"Z.I.rXgXeXqXrXrXrXeXeXrXeXwXeXnX@...G.@XbXmXgXeXwXN.} fXgXgXgXgXgXgXhXmXmXOXm.] fXjXhXgXgXgXgXgXhXjX@.Z.wX3XeXrXpXN.g.N.@XrXwX&.",
"K.K.oXgXgXrXeXrXeXeXeXrXeXwXtX*Xx | Y.N.oXvXeXeXqXd. .rXhXgXgXgXgXgXgXgXgXnX#Xc +XhXgXgXgXgXhXbXhX2XZ qXwXeXqXpXOXN.J.N.N.N.K.&.",
"K.B.N.U.<XrXtXrXqXeXeXeXrX<X@Xp.z A P.K.N.<XvXqXeXi.~ bXmXmXmXgXgXgXgXgXgXgXfX| x.nXrXrXgXvXoX@XpX<Xm +XqXeXqXOXN.J.J.J.J.J.m.&.",
"d.U.I.K.K.I..X=XwXeXrXwX<XK. X<.f V K.I.K.@XgXeXqX9.c vXVXmXmXmXbXbXgXgXgXrXtX| v.bXrXgXrXoXN.J.*XvXk ~.wX<X@XN.m.G.J.m.N.P.m. .",
"-.I.J.K.K.K.C.Z.#XeX;XoXK.K..X;.s c L.Y.K.oXtXrX&XZ s eXcXxXcXSXmXmXmXhXfXrXvX+.,XVXgXqX@XI.U.I.XXbXA #.yXqX@XK.K.K.B.P.J.K.s.] ",
"p A.L.Y.I.I.I.K.I.R.T.I.L.K.c.) 9 9 d.R.U..XwX-X2.0 a qXDXmXmXVXFXFXFXFXSXvXMX@.n..XN.a.,.o.O.f.J.9X+.g OX%XF.p.1.,.1.,.:.:. .g ",
", N N.N.f.G.G.m.a.3.,.>.) I % O < w @ /  . .] ` @ < e u.a.<.>.<.y.C..X XC.p.<.v ..~ % $ $ $ $ & y.K.H < o l & Y ( ( R U & = 1 e ",
"q : N &.&.~ # + i X o X X o j #.0.k.(.).+X)._.k.q.!.J M i 6 6 i z z z v W ! ] n 5 > q r 4 , , 1 n M m F M B C x s i } 8.-.z.).9.",
"y (.gXbXmXeX).G < #.0X>X5X>XkXSXVXVXmXmXmXmXmXBXBXVXtXBX(.> B [.gXfXgXhXmXmXVXjX,X0.4 w 8 ] 8.=.=.=.1.J.I.OX&X;Xe.. '.DXbXvX-Xt.",
"h.bXrXbXmXmXSXHXq.@.ZXbXmXgXgXrXgXgXrXgXgXgXgXgXgXgXgXZXC.8 ,XGXgXtXtXtXeXrXrXgXZXZX,Xj v L.K.U.Y.Y.N.=XrXpXrXwXjX6.).mXrX.XJ.[ ",
"K.wXwXbXmXmXmXbXCX} $XvXgXtXgXgXgXgXgXgXgXbXrXbXbXgXkXmXt.a C.iX@X;X<X<X<X<X;X;X<X@XBX7. .R.P.I.I.I.@XvXrXeXeXqXmX/.+XmX@XK.p.# ",
"I.yXeXmXbXbXmXhXBX} =.rXgXtXgXgXgXgXgXgXgX<XI.T.<XtXgXmXu.i b.vX<X<XeXeXqXqX<X<XeX<XtX{ t.U.J.P.Y.U.nXbXbXbXjXgXZX].2XmX@XL.<.+ ",
"P.tXeXmXbXmXmXVXlX{ =.rXrXrXgXgXgXgXbXtXoXN.B.B.K.*XwXbX@Xj i.rX<X<XeXrXrXrXrXeX<XeXwX/ y.I.I.N.OXpXbXhXmXmXjXjXnX].2XgXrXOX<.+ ",
"c.qXgXmXNXmXbXnXtXZ z.VXtXgXrXtXtX2X;X XI.I.I. XI.I.#XrXvXA =.<X<X<XeXeXrXeXeXrXqXgX*X! ,.<XeXrXbXtXbXbXmXmXmXmXBX~.>XgXgXeXu.@ ",
"d.wXbXbXmXmXgX<X@XB z.gXrXgXwX&XU.K.J.f.p.p.g.G.K.K.I.@XnX+...@X<X<XeXeXrXgXtXrXeXgXoXQ y.rXrXtXrXrXtXgXmXmXmXmXbX6.:XvXtXrXx.@ ",
"r. XwXVXmXvXeXwXOXN  .3.<.O._ ! ! U P P $ $ L L _ f.G.U.&X6.) OX<XqXeXeXvX<XrXrXeXgXM.v <.wXtXtXrXrXrXrXbXmXbXmXgXn '.bXrXgXP.+ ",
"} N.I.gXmXvXeXwXT.b M -.) ~ ' ] } *.7.' k 8 5 6 o c [ [ ] b =.=X<XqXqXbX<Xd.N.OX3XmXM.z W p.OXOXOX&X<X@XeXCXrXAX,X. w.VXrXvX@Xf ",
"A m.P.U.gXtXeX1XI.9 q.2XeXkXSXFXFXFXHXcXjXk.6 r.V.l.7.W  .C h.tX<XeXrXbXJ.J.N.f.m.R.m.k < i ~ &.,.4.g.g..XnXZXmXJ   Q.GXrXbX-X[ ",
"M m.I.N.*XbXeXwXN.i 5XnXgXgXhXmXjXmXnXhXI.N.C p.&XbXmXiXZXqXh.tX<XrXrXOXN.J.J.J.N.G.a.i h H A | } v ~ [  .) y.%.1 : q.].| Z Z j ",
"k m.U.K..XtXeXeXu.C kXrXrXgXgXgXhXhXbXhXN.x.v 2.K.XXfXgXgXeX9.eX<X<X XN.J.J.J.J.J.K.,.| zXCXmXVXcX[.y 1 q.(._.).5XdXdX5X:X'.~.n ",
"b m.U.H..XiXwXrX8.[ gXgXgXgXgXgXgXgXgXhXpX Xi = m.U. XgXrXkX7.@X<X#XZ.N.J.J.J.J.K.K.<.9.fX%X<X-X1XZX{.M SXnXbXVXVXVXSXSXKXnXOXd.",
"j m.U.H.U.wXiXoXN [ tXhXhXgXgXgXgXrXgXfXvX<Xb + ,.U.N.<XhXmX@.j.pX%XK.N.N.m.f.f.4.4.X...gX#X;X=X&XqX).v.mXgXgXeXtXrXgXkXjXqXJ.1.",
"r [ m.P.J.U.m.X.5 @.bXmXAXbXgXtXtXrXgXgXtXeXB O >.I.I.yXgXnX!.k r.&._ _ _ _ ( ( ( W 3 @.uX9X=X*X<XrXI.x.bXgXgXgXgXgXgXtXgXmXbXu.",
"w X @ z Q / ^ / a { BXmXAXbXhXhXgXgXgXgXrXtXH % ,.oXeXjXrXsX!.  2 d f Q ! Q E v p r - Z K.T.=X<X*XrXv.j.VXbXbXhXgXgXgXtXgXgXgXI.",
"n ).v.r.N.;XqX%X@.V bXVXAXVXVXVXmXhXgXgXrXeXZ $ g.<XgXkXtXsXH G `.`.,X2XrXeXfX5X[./.B ~ Y.P.I.*X<XrX7.j.GXbXVXmXjXhXhXtXgXgXrXOX",
"6.CXMXmXaXrX+XI.-.m gXVXjXjXmXmXVXVXgXgXrXhXG # D.wXgXtXgXjX+.@XCXjXmXmXjXmXmXVXgXoX*.&.OXZ.B.#X<X<X' h.SXhXVXVXmXmXjXbXgXgXtXoX",
"~.gXrXgX*X XK.s.c g gXGXSXZXCXHXHXVXbXjXtXVXH # OXrXgXgXvX6X{ =XNXvXgXrXtXrXtXrXrXbX7.j.9XI.OX;X<X<XM 7.VXSXSXVXSXlXVXlXhXgXhXeX",
"'.hXgXtXK.Z.J.( 3 g 1X&XN.f.Z.#XgXVXCXhX@X_.M v &XvXgXfXjX'.j fXVXlXjXhXhXgXgXgXgXmXl.z.rX*X<X<X<X*Xk } BXwX@X#XeXhXZXGXCXbX<X.X",
":XhXvX2XN.I.G.I 5 7 W & & U Y R _ O._ ( T ( p =.&XnXrXtXBX].o 2XKXSXDXDXDXZXVXhXgXCX_.7.iX=X<X#X1X%Xj k 7.~ Q T Y ( >.,.>.X._ ) ",
"dXtXgXmX=XK.f.I 8 y @.9.w.h.5.j 5 i V J Z j , N 6.q.@.h.>X(.. V.OXN.N.K.OXeXtXrX<X%Xh.| <X%X%XJ.I.v.y q 2 7 7 5 N } +.+.6.#.j : ",
">XtXgXgXgX#XK.Y X '.DXVXHXDX+X5 G eXSXHXjXfX^.y - q < . 8 F D +.} | ' ' N x s s u + 5 . x &.>.>. .+ > t w t ; 0.mXvXhXbXmXSXfXq.",
"'.bXgXgXrXgXT._ u ,XvXrXtXpXXXs `.pXgXbXbXmXDXzXM ~.5X].,XfXjXmXjXmXmXgX2XfXB r H 0.q.Q.~.).<X).k.5.F y e y > q.aX@X<X=X*X*XwXrX",
"Q.MXrXgXrXgX&X_ @ >XVXtXgXtX2X+.;XrXgXmXmXmXgXZX+Xz.BXhXjXgXrXrXrXrX2XgXbXhXv 5.LXmXmXmXnXbXmXmXVXVXhX0X>XkX~.@.iX<XeXrXeX<XeXoX",
"G mXrXgXrXgXiX,.X >XZXhXgXtX2X9.qXrXgXmXmXmXmXCX,X' rXgXgXiXiXiX<X.XI.OX<XhX} ` pXgXgXgXgXgXgXrXrXwXrXvXvXZXl.Z *X<XqXrXrXqXtXI.",
"y fXtXgXvXhXvXf.p ,XGXCXCXVXgX8.%XtXgXmXmXmXbXDX).} rX1X%XU.J.a.,.,.a.J.U.pXV.{ yXgXeX@X X<XgXgXtXtXgXgXgXwXc M *XeXqXrX<XrXtXN.",
"n SXBXtX#X2XgXu.' r.A.j.@X#XS. .R.gXhXmXmXmXnXGX+XM S v z z v v v v @ c -.=.H z.sX1XI.J.K.K.OXrXgXhXrXrXvX*Xz G wX<XhXOXd.C.=Xa.",
"y ~.9.N k m B m b 6 u i u u X x .XgXhXmXbXmXrX3X_.8 0.'.,X6XkXxXcXcXxXdX:X` - (.pX XI.U.Z.N.f.P.@X<XgXmXkXVXG G tX3X=XN.C.c.J.,.",
"t : ~.|.6X0X;X;X0X0XdX0X>X>X~.b Z.gXVXbXbXgXeX3Xd.k kXmXbXbXmXnXVXmXSXVX#Xg.9 j.L.s.,.U I L U T _ o.>.p.f.G.N y eXwXK.K.K.K.L.t.",
"- H PXhXhXvXvXgXrXgXgXbXbXCXFX@.1.B.tXmXbXrXeXrXy.5.hXrXtXrXrXgXvXbXCX<Xx.x.y s ] 9.@.b 9 1 : 5 5 5 5 5 a M y > /.@Xg.4.4.1.y.' ",
"< '.mX3XrXeXeXeXeXeXrXeXeXtXbX{ >.P.XXhXbXrXtX3Xt.l.nXrXgXgXgXgXtXgXjXhX<Xu.7 ~.fXmXmXjXfX|.!.y t q - , 7 8 g y l x I U I & u 1 ",
"n xXrXeXrXrXrXeXeXeXeXeXrXeXbX@...Y.K.oXbXeXeX<Xt.i.bXgXgXgXgXgXgXgXgXgXVXA.~ tXeXvXvXbXnXnXKX'.> J '.>X>X<X<X<X;X<X<X<X+X).q.5 ",
"k.2XwXeXeXeXeXrXeXeXeXeXeXeXZX9.| L.K.N.wXgXrX<X=.r.VXmXmXhXgXgXgXgXgXgXbX X*.<XrXgXbXmXmXbXDX`.7 cXPXCXVXmXnXnXVXZXZXSXDXLXFXH ",
"N.J.%XyXrXeXrXwXwXwXeXeXeXrX-XN } U.K.N.=XrXqX<X[ 9.DXmXVXmXhXhXgXtXgXgXgX;X7.+XpXbXbXmXbXgXvXv.Z SXeX<XrXgXrXqXeX<XqXeXfXhXGX9.",
"d. XJ.K.%X*X=XwXwXrXwXqX@XoX3.z } U.K.K.=XrXwX<Xv 9.DXmXVXVXVXmXbXgXgXgXtX@X' v.%XbXmXbXgXqX1X8.w.DX3XrXrXrXrXrXeXeXeXqXeXgXZX9.",
"~  XU.P.P.Z.K.oXqXiX<X@XXX.X:.@ } U.K.N.oXtXwXP.u 6.ZXbXbXmXlXlXVXmXgXeXhX;Xl 8.J.I.wXgXrXwX<X7.'.CX3XeXeXeXeXeXeXeXeXwXtXtXZX9.",
"5 | K.B.K.Y.f.g.p.,.<.&.) Q f : j a.L.L.L.-XH.^ , | mXDXDXHXHXHXVXmXbXgXgXvX9 *.U.J.C.rXrXwX#X*.0XtXeXeXeXeXeXeXeXeXeXeXrXeXbXh.",
"w < 3 6 6 u k m V @.9.5.@.B n h 9 * Q  .=.) ^ a > { nXeXoX.X<XgXSXHXHXxXqX.Xy 9.E.U.P.3XvXiXU.i.VXqXeXeXeXeXrXeXeXeXeXeXeXqXpX/.",
"H Q.q.0.Q.).7XkXjXlXVXVXSXlXhXfX7X4X).V 1 7 , w q b -.T T R T _ ,.s.3.>.) ^ , x d.N.N.I.#XXX] u.<XtXeXeXeXeXtXrXeXrXrXeXeXqXvX).",
"+XDXVXVXZXnXbXvXrXrXrXrXgXgXgXgXvXmXKXw.< q t y r y a x M N N f + O + x { W n k ` } ..[ N a 6 v.K.qXgXeXeXeXtXtXeXeXeXeXeXeXbXh.",
"e.vX7XeXtXgXgXgXhXgXgXgXmXmXNXgXtXgXrX] { :X>X;X;X2XqXeXfX2X2X).~.B #.cXjXhXjXhXgXgXgXfXVXw.: /.L.K.eXbXeXeXeXeXeXrXrXrXeXrX%X[ ",
"M OXNXrXgXgXgXgXgXgXgXbXwX@XwXgXgXjXwX^ 7.bX3X*XwXwXwX<X<X<XeXeXZXl.h.GXeXrXeXeXeXeXeXeXtXxXa h.L.K.I.@XwXwXeXeXeXeXeXtX<XOXa.E ",
"a x.NXrXgXgXgXgXgXmXvX@XB.N.N.OXeXgXnX=.W  X=X<XeXqXrXtXrXrXwXwX9X[ V.vXqXeXeXrXeXeXeXeXqXVXw.7.U.J.K.N.J.I.OXwXeXeXeX=XK.I.,.E ",
"g  XvXrXgXgXgXgXgX<XI.Z.K.K.K.I.oX<XnX_.'  X<XqXrXtXtXOX X@X=XwX=XW i.yXwXeXrXeXrXrXrXrXrX%X_.' L.I.K.I.K.J.J..XwX<X XJ.I.OX>.E ",
"y qXMXhXgXrX<X#XoXI.K.K.J.I..XI.K.T.gX>XC fX<X<XwX=X_.N.N.N.N.J.J.] W J.&X<XrXrXeX#X@XoXI.U.v.+ t.W.K.K.K.I.U.U.OXU.U.U.J.s._ @ ",
"g a.P.XXJ.b.,.,.>.X.! U Y ( :.g.J.P.1X;Xp k.pXwXT.G.Y.K.K.K.J.G.a.N i &.p.f.J..XU.K.K.K.U.N.A q k x.K.J.G.f.g.p.,.>.) ^ I $ u 4 ",
"g *. .I $ $ $ $ L L $ % # O % I ,.p.u.z.b : B Z C ~ Q I v v z p 8 , q : o i s s k k b m k X - ; < 7 m @ $ % # + + + + 6 X . q K ",
"t 7 5./.).+X+X$X@X#X+X].{.(./.+.i a i M n D 4 - - r G 5.5.#.#.0.k.(.'.:X:X5X6X6X5X:X].'.(.(.~.Q.9.1 > J '.[.:X>X>XfXfXkX[.e.y > ",
"q y IXPXDXDXVXZXZXSXDXGXFXGXKXkX9 F [.gXjXxXeX}.H < /.GXVXVXVXBXVXbXbXbXvXpXiXiXnXnXnXbXbXnXmXKX@X9 H JXCXbXhXhXhXgXgXbXDXFXqX9.",
"- 0.GX<X2XrXeX<XwX2X2X<X3XeXmXDX' V.mXrXnXnXnXCXGXw.p Z.rXgXgXrXgXgXrXgXhXhXhXhX<X*X#X<XeXfXfXnXu.g { aX<X@X<X=X=X#X#X*X*X<XrXrX",
"- }.CX<XrXrXrXrXrXrXeXeXeXeXgXVX*.oXrXeXbXmXmXbXBXxXm i.bXkXgXgXgXhXhXhXhXeX<XoXI.P.P.C.oX#XeXyXqXM M 9XtX#X2XrXrXeXqX<X<X<XwX X",
"r 5XvXqXrXeXeXeXeXeXeXeXrXrXgXhX8.U.tXtXbXmXmXmXmXfXM ).iXwXrXrXwX&XOXU.P.D.g.p.4.f.G.H.L.U.@X3XZXh.x %XeX#X3XwXrXrXrXeXqX<XtXN.",
"F xXwXrXeXeXeXeXeXeXeXeXrXrXrXgXt.N.tXgXbXmXhXjXDXqXM @. .-./ E & & & & $ $ # @ # @ @ $ ] 2.t.j.A.9.M K.<X;XeXeXrXrXrXrXeXwXrXd.",
"!.SXwXrXrXeXeXeXeXeXeXrXeXwXwXbXr.d.rXgXbXmXbXgX2XOXk m k.z.V.(.'.[.[.].'.~.H r t r 4 n H q.#.n 7 r m f.<X<XeXeXrXtXrXrXeXeXrXy."
};
